<svg width="25" height="25" viewBox="0 0 25 25" fill="none" xmlns="http://www.w3.org/2000/svg">
<path fill-rule="evenodd" clip-rule="evenodd" d="M12.0783 0.421597C5.41819 0.654174 0.189207 6.26157 0.421784 12.9217C0.654361 19.5818 6.26176 24.8108 12.9219 24.5782C19.5815 24.3457 24.811 18.7383 24.5784 12.0781C24.3459 5.418 18.7379 0.189038 12.0783 0.421597Z" fill="white"/>
<path fill-rule="evenodd" clip-rule="evenodd" d="M18.2924 3.6238C17.4531 6.02036 15.3717 6.5856 12.3317 6.69176C12.0054 6.70315 11.6821 6.70931 11.37 6.71558C11.0682 6.72201 10.7829 6.72735 10.5033 6.73712C10.255 6.74579 10.0048 6.75761 9.7584 6.777C10.1477 5.71666 10.8026 4.98243 11.755 4.51773C13.0827 3.87044 14.8359 3.80306 16.3829 3.74441C17.0569 3.71831 17.7021 3.69321 18.2924 3.6238Z" fill="#008F32"/>
<path fill-rule="evenodd" clip-rule="evenodd" d="M19.2668 4.34958C18.007 7.3674 14.9784 7.77106 12.3735 7.86202C11.8015 7.882 11.2531 7.88728 10.7457 7.90192L10.1792 10.4908C13.4436 7.6341 17.9819 10.1947 17.6513 14.3449C17.4284 17.1401 15.5072 19.03 13.4258 19.6266C11.1583 20.2769 8.59433 19.5118 7.37666 17.2205C7.24751 16.9784 7.02046 16.4923 6.93123 16.2314L9.32166 15.5275C9.36909 15.665 9.44612 15.7969 9.52632 15.9168C11.2322 18.4649 14.459 17.0481 14.734 14.3333C15.0141 11.5716 11.1063 10.2422 9.46097 13.5159L7.28997 12.679L7.25247 12.6639L8.13947 8.48651C8.1928 8.18984 8.37851 7.36003 8.41073 7.22382C9.42703 2.89554 13.1967 2.69611 16.2219 2.57916C14.9525 2.10217 13.5707 1.86177 12.1308 1.91206C6.28269 2.11628 1.7082 7.02182 1.91242 12.8699C2.11664 18.718 7.02218 23.2925 12.8703 23.0882C18.7183 22.884 23.2928 17.9785 23.0886 12.1304C22.9788 8.98681 21.5096 6.21272 19.2668 4.34958Z" fill="#EB2316"/>
</svg>
