<svg width="20" height="20" viewBox="0 0 20 20" fill="none" xmlns="http://www.w3.org/2000/svg">
<path d="M16.25 14.0625C16.7678 14.0625 17.1875 14.4822 17.1875 15C17.1875 15.5178 16.7678 15.9375 16.25 15.9375H3.75C3.23223 15.9375 2.8125 15.5178 2.8125 15C2.8125 14.4822 3.23223 14.0625 3.75 14.0625H16.25ZM16.25 9.0625C16.7678 9.0625 17.1875 9.48223 17.1875 10C17.1875 10.5178 16.7678 10.9375 16.25 10.9375H3.75C3.23223 10.9375 2.8125 10.5178 2.8125 10C2.8125 9.48223 3.23223 9.0625 3.75 9.0625H16.25ZM16.25 4.0625C16.7678 4.0625 17.1875 4.48223 17.1875 5C17.1875 5.51777 16.7678 5.9375 16.25 5.9375H3.75C3.23223 5.9375 2.8125 5.51777 2.8125 5C2.8125 4.48223 3.23223 4.0625 3.75 4.0625H16.25Z" fill="white"/>
</svg>
