<svg width="20" height="20" viewBox="0 0 20 20" fill="none" xmlns="http://www.w3.org/2000/svg">
<path d="M14.3369 4.33691C14.703 3.97081 15.297 3.97083 15.6631 4.33691C16.0292 4.70302 16.0292 5.29696 15.6631 5.66309L11.3262 10L15.6631 14.3369C16.0292 14.703 16.0292 15.297 15.6631 15.6631C15.297 16.0292 14.703 16.0292 14.3369 15.6631L10 11.3252L5.66309 15.6631C5.29696 16.0292 4.70302 16.0292 4.33691 15.6631C3.97083 15.297 3.97081 14.703 4.33691 14.3369L8.67383 10L4.33691 5.66309C3.97081 5.29698 3.97082 4.70304 4.33691 4.33691C4.70302 3.97081 5.29696 3.97082 5.66309 4.33691L10 8.67383L14.3369 4.33691Z" fill="white"/>
</svg>
