<svg width="490" height="573" viewBox="0 0 490 573" fill="none" xmlns="http://www.w3.org/2000/svg">
<path d="M233.007 88.7306C240.767 83.4025 249.237 83.4049 256.992 88.7306C266.757 95.4362 275.155 110.351 280.202 133.248C285.24 156.099 286.899 186.726 283.348 224.601L283.279 225.339L283.964 225.621C285.637 226.31 287.288 227.038 288.92 227.805L289.62 228.134L290.115 227.54C314.787 197.925 337.958 177.262 357.932 164.598C377.946 151.908 394.594 147.346 406.289 149.627H406.29C415.463 151.413 421.378 157.417 423.037 166.627C425.155 178.375 420.35 195.018 407.354 214.947C394.384 234.835 373.357 257.841 343.335 282.251L342.744 282.732L343.049 283.429C343.933 285.451 344.761 287.499 345.522 289.579L345.789 290.308L346.561 290.231C385.272 286.423 416.542 287.981 439.837 293.014C463.179 298.057 478.333 306.547 485.073 316.431C490.306 324.111 490.306 332.496 485.075 340.18C478.309 350.1 463.071 358.616 439.586 363.653C416.149 368.678 384.681 370.198 345.722 366.297L344.966 366.221L344.69 366.929C344.13 368.362 343.536 369.781 342.917 371.187L342.613 371.879L343.195 372.362C372.908 396.989 393.669 420.134 406.423 440.097C419.202 460.101 423.846 476.755 421.629 488.466C419.888 497.666 413.922 503.616 404.733 505.322H404.732C402.909 505.661 400.959 505.834 398.901 505.834C386.742 505.835 370.679 499.831 351.985 486.91C333.316 474.006 312.119 454.269 289.711 426.972L289.218 426.371L288.514 426.7C286.946 427.43 285.358 428.124 283.751 428.781L283.06 429.064L283.133 429.806C286.921 468.329 285.364 499.475 280.345 522.7C275.316 545.972 266.851 561.111 256.992 567.881C253.087 570.563 249.028 571.877 245 571.877C240.975 571.877 236.914 570.563 233.009 567.881C223.239 561.171 214.836 546.239 209.79 523.313C204.754 500.433 203.103 469.766 206.671 431.841L206.744 431.061L206.004 430.802C203.224 429.83 200.492 428.751 197.816 427.568L197.13 427.264L196.646 427.839C174.319 454.37 153.256 473.548 134.722 486.086C116.166 498.639 100.237 504.473 88.1585 504.475L87.3447 504.466C85.4616 504.425 83.683 504.239 82.0056 503.911H82.0046C72.8314 502.125 66.9155 496.121 65.2565 486.91C63.1755 475.368 67.7786 459.096 80.2734 439.621C92.7433 420.184 112.979 397.708 141.871 373.817L142.464 373.327L142.144 372.629C141.362 370.919 140.618 369.185 139.922 367.43L139.647 366.735L138.903 366.802C101.526 370.124 71.3228 368.359 48.7959 363.293C26.2241 358.216 11.5335 349.866 4.92839 340.178C-0.307962 332.496 -0.307638 324.111 4.92839 316.431C11.5085 306.78 26.1127 298.454 48.5406 293.372C70.924 288.3 100.928 286.498 138.055 289.732L138.815 289.797L139.08 289.082C140.196 286.076 141.445 283.13 142.814 280.252L143.146 279.553L142.554 279.055C113.773 254.867 93.6661 232.167 81.3239 212.583C68.957 192.959 64.4797 176.615 66.6639 165.073C68.3508 156.161 74.0033 150.299 82.7098 148.391L83.5616 148.218C95.1929 146.056 111.648 150.679 131.363 163.335C151.038 175.966 173.809 196.502 198.006 225.867L198.482 226.446L199.172 226.152C201.345 225.225 203.557 224.373 205.8 223.583L206.534 223.325L206.465 222.549C203.135 185.278 204.885 155.133 209.936 132.628C214.998 110.079 223.332 95.3739 233.007 88.7306Z" stroke="#2094F3" stroke-width="2"/>
</svg>
