<svg width="400" height="140" viewBox="0 0 400 140" fill="none" xmlns="http://www.w3.org/2000/svg">
<g clip-path="url(#clip0_24_16785)">
<path d="M199.247 140C309.704 140 399.247 50.457 399.247 -60C399.247 -170.457 309.704 -260 199.247 -260C88.7901 -260 -0.75293 -170.457 -0.75293 -60C-0.75293 50.457 88.7901 140 199.247 140Z" fill="url(#paint0_radial_24_16785)"/>
<path d="M238.938 -254.504C239.422 -254.458 240.169 -254.364 240.303 -254.301V-254.287C240.096 -254.242 238.095 -254.438 237.784 -254.532L237.767 -254.539L237.773 -254.553C237.905 -254.581 238.454 -254.549 238.938 -254.504Z" fill="white"/>
<path d="M231.971 -256.59C232.98 -256.541 234.072 -256.422 234.262 -256.338C234.11 -256.226 230.824 -256.443 230.399 -256.53C230.381 -256.537 230.354 -256.544 230.336 -256.555C230.433 -256.663 231.957 -256.59 231.971 -256.59Z" fill="white"/>
<path d="M223.745 -258.194C224.861 -258.194 226.267 -258.082 226.544 -257.991L226.554 -257.97C226.34 -257.897 223.112 -257.904 222.386 -258.002C222.338 -258.012 222.29 -258.019 222.248 -258.044C222.252 -258.054 222.258 -258.072 222.258 -258.072C222.521 -258.187 223.544 -258.194 223.745 -258.194Z" fill="white"/>
<path d="M214.563 -259.288C215.599 -259.368 217.421 -259.246 217.59 -259.166C217.521 -259.078 214.794 -258.904 213.975 -258.966C213.851 -258.98 213.564 -259.015 213.681 -259.11C213.754 -259.169 214.023 -259.249 214.563 -259.288Z" fill="white"/>
<path d="M204.799 -259.839C205.28 -259.993 207.637 -259.913 207.802 -259.822L207.796 -259.794C207.657 -259.714 206.42 -259.427 205.456 -259.444C204.682 -259.486 204.602 -259.693 204.661 -259.762C204.699 -259.808 204.747 -259.825 204.799 -259.839Z" fill="white"/>
<path d="M194.713 -259.822C194.675 -259.836 194.637 -259.85 194.613 -259.885C194.762 -260.021 197.14 -260 197.164 -259.997C197.471 -259.99 198.114 -259.976 198.121 -259.805C198.121 -259.805 198.052 -259.483 197.012 -259.438C195.854 -259.438 194.724 -259.819 194.713 -259.822Z" fill="white"/>
<path d="M184.674 -259.203C184.384 -259.228 184.086 -259.21 183.806 -259.305C183.886 -259.406 186.526 -259.567 187.622 -259.539C188.963 -259.504 189.333 -259.273 189.34 -259.158C189.35 -259.025 188.997 -258.987 188.828 -258.969C188.116 -258.927 187.349 -258.976 184.674 -259.203Z" fill="white"/>
<path d="M175.045 -257.97C173.362 -257.973 173.145 -257.973 172.924 -258.008C173.279 -258.431 180.437 -258.812 181.408 -258.176C181.412 -258.155 181.415 -258.127 181.418 -258.106C181.332 -258.054 181.235 -258.04 181.142 -258.022C180.63 -257.956 180.63 -257.956 175.045 -257.97Z" fill="white"/>
<path d="M166.758 -256.234C163.73 -256.083 163.343 -256.062 163.07 -256.115C164.159 -256.856 173.656 -257.401 174.752 -256.782C174.724 -256.737 174.655 -256.695 174.606 -256.681C174.216 -256.608 174.216 -256.608 166.758 -256.234Z" fill="white"/>
<path d="M160.133 -254.113C156.577 -253.777 155.378 -253.666 154.97 -253.742C154.977 -253.763 154.987 -253.791 154.994 -253.812C157.199 -254.752 168.12 -255.752 169.423 -255.133C169.402 -255.112 169.371 -255.081 169.351 -255.056C168.915 -254.937 168.915 -254.937 160.133 -254.113Z" fill="white"/>
<path d="M155.232 -251.684C150.895 -251.09 149.087 -250.859 148.662 -250.982C149.301 -251.971 163.001 -253.85 165.507 -253.295C165.51 -253.27 165.514 -253.239 165.517 -253.214C165.047 -253.029 165.047 -253.029 155.232 -251.684Z" fill="white"/>
<path d="M152.152 -249.036C146.813 -248.061 145.071 -247.806 144.4 -247.889C144.387 -247.921 144.369 -247.966 144.355 -248.001C146.381 -249.469 161.525 -251.834 163.156 -251.272C163.156 -251.258 163.156 -251.24 163.156 -251.226C162.748 -250.985 161.615 -250.762 152.152 -249.036Z" fill="white"/>
<path d="M151.037 -246.268C145.349 -244.94 143.013 -244.514 142.422 -244.689C142.56 -245.328 147.004 -246.645 151.328 -247.62C155.745 -248.616 161.758 -249.451 162.052 -249.112C161.654 -248.861 161.368 -248.679 151.037 -246.268Z" fill="white"/>
<path d="M151.942 -243.455C144.432 -241.247 143.084 -241.191 142.752 -241.425C142.908 -243.319 161.374 -247.571 162.493 -246.963C162.303 -246.754 161.975 -246.404 151.942 -243.455Z" fill="white"/>
<path d="M154.967 -240.678C150.885 -239.158 145.936 -237.498 145.528 -238.204C146.123 -240.342 162.746 -245.437 164.554 -244.839C164.409 -244.392 161.184 -242.991 154.967 -240.678Z" fill="white"/>
<path d="M160.058 -238.099C152.627 -234.535 150.533 -234.521 150.937 -235.38C152.029 -237.704 165.94 -243.249 168.145 -242.798C168.166 -242.777 168.19 -242.753 168.211 -242.732C168.024 -241.928 160.383 -238.252 160.058 -238.099Z" fill="white"/>
<path d="M166.703 -235.95C161.322 -232.546 158.194 -231.641 158.277 -232.735C158.447 -234.929 170.584 -241.268 172.921 -240.999C173.816 -240.464 166.772 -235.995 166.703 -235.95Z" fill="white"/>
<path d="M174.593 -234.262C170.014 -230.237 167.125 -229.545 167.146 -230.841C167.187 -233.224 176.366 -239.66 178.758 -239.542C179.967 -239.056 174.649 -234.307 174.593 -234.262Z" fill="white"/>
<path d="M183.426 -233.053C180.351 -228.836 177.313 -227.878 177.109 -229.534C176.784 -232.152 183.143 -238.424 185.448 -238.445C186.765 -238.071 184.19 -234.094 183.426 -233.053Z" fill="white"/>
<path d="M192.876 -232.364C191.449 -228.213 188.764 -227.025 187.951 -228.661C186.759 -231.058 190.595 -237.483 192.707 -237.616C194.013 -237.361 193.46 -234.07 192.876 -232.364Z" fill="white"/>
<path d="M202.663 -232.218C202.787 -228.692 200.924 -226.949 199.442 -228.22C197.409 -229.964 198.187 -236.938 200.447 -237.211C201.764 -237.043 202.593 -234.154 202.663 -232.218Z" fill="white"/>
<path d="M212.509 -232.627C213.815 -229.527 212.823 -227.749 211.123 -228.521C208.271 -229.817 206.633 -236.662 208.285 -237.215C208.334 -237.232 208.403 -237.236 208.451 -237.246C209.848 -237.162 211.738 -234.461 212.509 -232.627Z" fill="white"/>
<path d="M222.069 -233.626C224.101 -231.17 224.081 -229.545 222.792 -229.625C220.009 -229.8 215.295 -236.516 216.322 -237.554C216.381 -237.613 216.495 -237.645 216.578 -237.669C217.901 -237.673 220.67 -235.318 222.069 -233.626Z" fill="white"/>
<path d="M230.682 -235.153C233.187 -233.165 233.865 -231.75 233.052 -231.575C230.944 -231.124 223.714 -237.477 224.167 -238.455C224.195 -238.511 224.281 -238.55 224.336 -238.574C225.414 -238.644 228.577 -236.823 230.682 -235.153Z" fill="white"/>
<path d="M237.763 -237.082C240.597 -235.433 241.709 -234.199 241.118 -234C239.843 -233.577 230.394 -239.018 231.006 -239.825C231.023 -239.846 231.058 -239.856 231.079 -239.87C231.956 -239.982 235.392 -238.462 237.763 -237.082Z" fill="white"/>
<path d="M243.206 -239.325C246.064 -238.036 247.423 -237.022 247.046 -236.823C246.268 -236.414 236.951 -240.555 236.768 -241.39C236.778 -241.404 236.795 -241.418 236.806 -241.432C237.469 -241.575 240.79 -240.419 243.206 -239.325Z" fill="white"/>
<path d="M246.956 -241.806C248.785 -241.15 250.71 -240.311 250.889 -239.923C250.668 -239.441 241.714 -242.54 241.209 -243.274C241.213 -243.284 241.219 -243.302 241.223 -243.312C241.669 -243.463 244.672 -242.628 246.956 -241.806Z" fill="white"/>
<path d="M248.915 -244.434C250.418 -244.001 252.063 -243.435 252.34 -243.148C252.33 -243.131 252.319 -243.106 252.309 -243.089C251.51 -242.974 244.446 -245.011 244.353 -245.381C244.854 -245.51 247.695 -244.784 248.915 -244.434Z" fill="white"/>
<path d="M249.037 -247.134C250.222 -246.862 251.55 -246.488 251.671 -246.331C251.284 -246.114 246.048 -247.445 245.892 -247.634C246.124 -247.746 248.111 -247.348 249.037 -247.134Z" fill="white"/>
<path d="M247.245 -249.825C247.874 -249.713 248.61 -249.549 248.724 -249.472L248.714 -249.455C248.4 -249.416 245.863 -249.874 245.666 -250.003L245.676 -250.017C245.859 -250.042 246.606 -249.94 247.245 -249.825Z" fill="white"/>
<path d="M265.764 -248.896C266.268 -248.724 266.787 -248.581 267.278 -248.364C267.212 -248.378 265.232 -249.046 264.9 -249.168C264.883 -249.175 264.862 -249.182 264.845 -249.189C265.166 -249.144 265.456 -248.997 265.764 -248.896Z" fill="white"/>
<path d="M152.651 -254.263C152.454 -254.304 152.281 -254.203 152.098 -254.161C149.447 -253.518 147.26 -252.875 146.541 -252.662L152.651 -254.263Z" fill="white"/>
<path d="M132.471 -248.144C130.411 -247.449 128.766 -246.841 128.417 -246.687L134.213 -248.805C140.565 -251.083 142.262 -251.328 142.276 -251.328C142.199 -251.272 142.082 -251.216 141.992 -251.181C138.844 -250.087 135.626 -249.21 132.471 -248.144Z" fill="white"/>
<path d="M124.228 -244.049C120.198 -242.634 119.131 -242.264 118.764 -242.239C119.369 -243.186 132.671 -247.966 134.579 -247.921C134.548 -247.876 134.51 -247.813 134.479 -247.767C133.722 -247.379 133.722 -247.379 124.228 -244.049Z" fill="white"/>
<path d="M119.067 -239.58C113.365 -237.414 112.56 -237.302 112.249 -237.368C112.681 -238.773 127.504 -244.556 129.677 -244.168C129.677 -244.126 129.674 -244.074 129.671 -244.032C129.408 -243.815 128.706 -243.242 119.067 -239.58Z" fill="white"/>
<path d="M117.199 -234.923C110.09 -231.911 109.506 -232.232 109.316 -232.337C109.036 -233.892 125.466 -240.943 127.439 -240.115C127.446 -240.09 127.457 -240.055 127.464 -240.031C126.928 -239.098 119.47 -235.883 117.199 -234.923Z" fill="white"/>
<path d="M118.73 -230.185C113.276 -227.54 109.82 -226.435 109.924 -227.372C110.176 -229.608 126.558 -237.295 128.182 -235.936C128.241 -234.811 119.117 -230.373 118.73 -230.185Z" fill="white"/>
<path d="M123.838 -225.505C117.98 -222.158 113.729 -220.865 114.361 -222.626C115.45 -225.659 129.447 -233.014 131.98 -231.882C132.82 -230.687 123.928 -225.554 123.838 -225.505Z" fill="white"/>
<path d="M132.408 -221.159C126.374 -216.938 122.195 -215.995 122.627 -218C123.339 -221.299 135.57 -228.85 138.784 -227.973C140.153 -227.001 134.644 -222.724 132.408 -221.159Z" fill="white"/>
<path d="M143.592 -217.546C138.339 -212.889 133.746 -211.694 134.019 -214.167C134.403 -217.665 144.453 -225.146 147.982 -224.563C149.879 -223.696 145.334 -219.091 143.592 -217.546Z" fill="white"/>
<path d="M156.874 -214.695C152.592 -209.576 147.77 -208.238 147.732 -211.187C147.684 -214.891 155.491 -222.138 159.175 -221.809C161.356 -221.117 158.567 -216.718 156.874 -214.695Z" fill="white"/>
<path d="M171.748 -212.654C168.859 -207.444 164.176 -205.82 163.301 -208.692C162.199 -212.315 168.091 -219.863 171.938 -219.751C174.457 -219.192 172.899 -214.73 171.748 -212.654Z" fill="white"/>
<path d="M187.661 -211.494C186.244 -206.399 181.958 -204.551 180.337 -207.238C178.34 -210.554 182.11 -218.21 185.791 -218.311C188.286 -217.937 188.387 -214.101 187.661 -211.494Z" fill="white"/>
<path d="M204.157 -211.232C204.139 -206.277 200.459 -204.296 198.161 -206.794C195.354 -209.845 196.92 -217.329 200.424 -217.619C202.985 -217.399 204.164 -213.678 204.157 -211.232Z" fill="white"/>
<path d="M220.763 -211.917C221.924 -207.71 219.612 -205.495 216.972 -206.847C212.755 -209.006 212.106 -217.04 215.088 -217.745C215.182 -217.766 215.313 -217.777 215.41 -217.791C217.974 -217.724 220.12 -214.244 220.763 -211.917Z" fill="white"/>
<path d="M236.899 -213.591C238.914 -210.009 237.622 -207.808 235.147 -208.521C230.938 -209.733 227.627 -217.298 229.832 -218.58C229.977 -218.664 230.201 -218.717 230.364 -218.752C232.686 -218.832 235.652 -215.806 236.899 -213.591Z" fill="white"/>
<path d="M251.459 -216.155C253.81 -213.419 253.986 -211.155 251.833 -211.399C248.021 -211.833 242.508 -219.027 244.05 -220.383C244.146 -220.47 244.319 -220.526 244.444 -220.568C246.386 -220.757 249.766 -218.129 251.459 -216.155Z" fill="white"/>
<path d="M263.452 -219.401C265.965 -217.217 266.887 -215.264 265.463 -215.138C262.515 -214.873 255.372 -221.606 256.184 -222.871C256.236 -222.951 256.36 -223.014 256.447 -223.056C257.971 -223.318 261.496 -221.103 263.452 -219.401Z" fill="white"/>
<path d="M272.704 -223.182C275.251 -221.414 276.537 -219.772 275.51 -219.597C273.63 -219.276 265.332 -224.929 266.162 -225.967C266.186 -225.995 266.227 -226.016 266.258 -226.037C267.343 -226.341 270.699 -224.576 272.704 -223.182Z" fill="white"/>
<path d="M279.111 -227.372C281.503 -225.991 282.965 -224.66 282.298 -224.464C281.036 -224.097 273.212 -228.521 273.485 -229.447C273.492 -229.472 273.516 -229.493 273.53 -229.514C274.159 -229.797 276.924 -228.633 279.111 -227.372Z" fill="white"/>
<path d="M282.507 -231.809C284.488 -230.831 285.877 -229.856 285.545 -229.678C284.878 -229.321 278.17 -232.613 278.222 -233.273C278.509 -233.518 280.669 -232.714 282.507 -231.809Z" fill="white"/>
<path d="M282.801 -236.383C283.859 -235.929 285.328 -235.191 285.283 -234.978C284.889 -234.779 280.185 -236.792 279.933 -237.267C279.933 -237.267 279.936 -237.284 279.94 -237.295C280.168 -237.4 281.574 -236.914 282.801 -236.383Z" fill="white"/>
<path d="M279.871 -240.954C280.389 -240.755 281.239 -240.395 281.322 -240.272C281.174 -240.164 278.72 -241.16 278.492 -241.352L278.481 -241.366C278.609 -241.436 279.857 -240.957 279.871 -240.954Z" fill="white"/>
<path d="M95.9956 -230.656C95.1074 -230.121 94.2261 -229.576 93.3518 -229.024C97.0221 -231.201 101.885 -234.161 105.628 -236.205C105.845 -236.323 106.063 -236.446 106.284 -236.558C106.198 -236.502 106.08 -236.428 105.991 -236.379C98.0036 -231.865 98.0036 -231.865 95.9956 -230.656Z" fill="white"/>
<path d="M88.949 -224.535C83.9826 -221.502 83.5437 -221.407 83.2811 -221.351C83.2741 -221.383 83.2672 -221.425 83.2637 -221.456C84.8259 -223.329 96.694 -230.943 98.975 -231.254C98.9922 -231.226 99.0129 -231.188 99.0302 -231.16C99.0026 -231.125 98.9646 -231.076 98.9369 -231.041C98.6259 -230.751 97.6859 -229.867 88.949 -224.535Z" fill="white"/>
<path d="M86.387 -218.154C83.5081 -216.302 79.9657 -214.195 79.43 -214.691C79.3574 -216.673 94.2495 -226.502 95.6907 -225.426C95.6941 -225.391 95.6976 -225.338 95.7011 -225.303C95.0271 -223.727 86.7395 -218.381 86.387 -218.154Z" fill="white"/>
<path d="M88.4933 -211.661C83.4855 -208.139 79.9016 -206.689 80.3301 -208.363C81.1769 -211.654 95.0806 -221.068 96.6807 -219.429C96.9606 -217.979 90.8642 -213.332 88.4933 -211.661Z" fill="white"/>
<path d="M95.4911 -205.253C90.3313 -201.14 85.9317 -199.519 86.0734 -201.787C86.3085 -205.575 99.1649 -215.068 102.068 -213.597C103.215 -212.255 98.643 -207.769 95.4911 -205.253Z" fill="white"/>
<path d="M107.234 -199.31C101.583 -193.974 96.6377 -192.947 96.928 -196.046C97.3496 -200.533 108.081 -209.125 111.841 -207.986C113.838 -206.717 110.075 -201.99 107.234 -199.31Z" fill="white"/>
<path d="M122.545 -194.355C117.472 -188.432 111.939 -187.283 111.87 -190.938C111.783 -195.602 120.807 -203.901 125.099 -203.101C127.75 -201.997 124.94 -197.15 122.545 -194.355Z" fill="white"/>
<path d="M140.734 -190.445C136.801 -184.407 131.005 -182.905 130.044 -186.441C128.807 -190.99 136.424 -199.67 141.207 -199.163C144.224 -198.283 142.749 -193.534 140.734 -190.445Z" fill="white"/>
<path d="M161.111 -187.65C158.267 -181.252 152.056 -179.596 150.601 -183.59C148.891 -188.286 154.655 -196.434 159.542 -196.228C162.943 -195.536 162.507 -190.795 161.111 -187.65Z" fill="white"/>
<path d="M182.902 -186.06C181.505 -180.183 175.72 -177.517 173.228 -181.605C170.754 -185.665 174.175 -194.135 179.442 -194.208C183.05 -193.723 183.638 -189.152 182.902 -186.06Z" fill="white"/>
<path d="M205.503 -185.693C205.341 -179.987 200.229 -177.126 196.956 -180.91C193.715 -184.659 195.287 -192.944 200.385 -193.297C204.055 -193.027 205.586 -188.688 205.503 -185.693Z" fill="white"/>
<path d="M228.262 -186.626C229.206 -181.472 225.352 -178.386 221.502 -181.213C217.199 -184.372 217.064 -192.65 221.301 -193.516C221.44 -193.544 221.626 -193.558 221.765 -193.575C225.338 -193.523 227.754 -189.396 228.262 -186.626Z" fill="white"/>
<path d="M250.384 -188.911C252.16 -184.449 249.662 -181.371 245.777 -183.23C240.987 -185.525 238.713 -193.835 242.577 -194.932C242.698 -194.967 242.867 -194.988 242.992 -195.016C246.313 -195.176 249.368 -191.469 250.384 -188.911Z" fill="white"/>
<path d="M270.361 -192.423C272.521 -188.918 271.736 -186.088 268.778 -186.707C263.863 -187.734 259.726 -195.743 262.249 -197.427C262.412 -197.535 262.667 -197.615 262.854 -197.668C265.574 -197.982 268.944 -194.722 270.361 -192.423Z" fill="white"/>
<path d="M286.828 -196.868C289.182 -194.013 289.403 -191.497 287.298 -191.591C283.756 -191.752 277.404 -199.167 279.208 -201.04C279.311 -201.145 279.494 -201.229 279.629 -201.288C281.72 -201.693 285.162 -198.887 286.828 -196.868Z" fill="white"/>
<path d="M299.543 -202.053C301.955 -199.68 302.729 -197.517 301.16 -197.51C298.378 -197.5 291.594 -204.125 293.004 -205.477C293.042 -205.516 293.108 -205.547 293.149 -205.575C294.608 -206.022 297.825 -203.737 299.543 -202.053Z" fill="white"/>
<path d="M308.374 -207.787C310.655 -205.886 311.767 -204.087 310.706 -204.01C309.22 -203.901 301.987 -209.244 303.017 -210.512C303.863 -210.942 306.67 -209.206 308.374 -207.787Z" fill="white"/>
<path d="M313.076 -213.877C314.98 -212.483 316.18 -211.12 315.595 -211.019C314.763 -210.872 308.912 -214.761 309.126 -215.796C309.465 -216.148 311.441 -215.076 313.076 -213.877Z" fill="white"/>
<path d="M313.537 -220.16C314.408 -219.58 315.787 -218.552 315.773 -218.252C315.462 -217.972 311.266 -220.726 310.997 -221.39C310.997 -221.4 311 -221.418 311 -221.428C311.187 -221.571 312.448 -220.883 313.537 -220.16Z" fill="white"/>
<path d="M309.569 -226.439C310.129 -226.093 310.928 -225.555 310.969 -225.454C310.789 -225.436 308.712 -226.757 308.415 -227.036C308.408 -227.047 308.398 -227.057 308.394 -227.071C308.526 -227.078 309.393 -226.544 309.569 -226.439Z" fill="white"/>
<path d="M62.4095 -204.457C58.4143 -200.844 58.0894 -200.55 57.8682 -200.411C57.965 -200.547 58.0376 -200.648 59.2921 -201.892L64.1375 -206.532L67.2272 -209.338C70.8664 -212.56 71.6026 -213.007 71.7442 -213.067C71.7028 -212.979 71.6198 -212.878 71.5576 -212.804C70.9079 -212.141 70.9079 -212.141 62.4095 -204.457Z" fill="white"/>
<path d="M59.2507 -196.559C57.4121 -194.868 54.2118 -192.052 53.3996 -192.206C52.9711 -192.863 56.168 -196.633 59.3786 -199.753C63.3082 -203.572 66.8299 -206.074 67.3483 -205.76C67.4139 -205.721 67.4139 -205.592 67.4139 -205.515C66.6812 -203.422 59.3233 -196.629 59.2507 -196.559Z" fill="white"/>
<path d="M61.8533 -188.523C57.5506 -184.323 54.2155 -182.569 54.4194 -184.613C54.8203 -188.632 66.8923 -200.065 68.6134 -198.059C69.0765 -196.368 64.7115 -191.315 61.8533 -188.523Z" fill="white"/>
<path d="M70.5171 -180.594C66.0622 -175.807 61.7007 -173.914 61.362 -176.622C60.7917 -181.182 72.0896 -192.461 75.4177 -190.651C76.9591 -189.005 73.4823 -183.778 70.5171 -180.594Z" fill="white"/>
<path d="M85.0541 -173.236C80.4576 -167.53 74.8795 -165.64 74.3922 -169.623C73.7217 -175.12 83.2846 -185.001 87.8604 -183.537C90.4144 -182.003 87.7568 -176.591 85.0541 -173.236Z" fill="white"/>
<path d="M104 -167.103C99.9327 -160.996 93.4526 -158.903 92.4504 -163.372C91.3306 -168.358 99.1827 -178.439 104.73 -177.348C108.051 -176.021 106.302 -170.559 104 -167.103Z" fill="white"/>
<path d="M126.513 -162.264C123.074 -155.629 115.927 -153.389 114.368 -158.459C112.792 -163.589 119.221 -173.04 125.207 -172.352C129.146 -171.255 128.341 -165.794 126.513 -162.264Z" fill="white"/>
<path d="M151.728 -158.809C149.275 -152.072 142.114 -149.455 139.567 -154.364C137.006 -159.298 142.086 -168.938 148.49 -168.613C152.879 -167.764 153.028 -162.369 151.728 -158.809Z" fill="white"/>
<path d="M178.698 -156.831C177.275 -149.954 169.82 -147.218 166.792 -152.463C163.965 -157.362 167.535 -166.045 173.774 -166.084C178.374 -165.5 179.424 -160.322 178.698 -156.831Z" fill="white"/>
<path d="M206.675 -156.38C206.371 -149.954 200.174 -146.802 196.148 -151.03C192.129 -155.251 194.036 -164.574 200.337 -164.965C204.978 -164.658 206.837 -159.759 206.675 -156.38Z" fill="white"/>
<path d="M234.853 -157.527C235.548 -151.499 230.011 -148.092 225.594 -151.828C221.084 -155.643 221.433 -164.658 227.398 -165.378C231.919 -165.347 234.48 -160.766 234.853 -157.527Z" fill="white"/>
<path d="M262.248 -160.356C263.714 -155.091 259.712 -151.569 255.229 -154.175C249.9 -157.271 248.87 -165.867 253.674 -167.128C253.829 -167.17 254.044 -167.198 254.203 -167.23C258.367 -167.457 261.415 -163.347 262.248 -160.356Z" fill="white"/>
<path d="M286.994 -164.7C289.029 -160.122 286.821 -156.792 282.853 -158.445C277.711 -160.587 274.849 -169.046 278.772 -170.514C278.893 -170.559 279.062 -170.598 279.19 -170.633C282.567 -171.048 285.788 -167.411 286.994 -164.7Z" fill="white"/>
<path d="M307.399 -170.196C309.656 -166.419 308.83 -163.337 305.785 -164.2C301.309 -165.468 296.965 -173.53 299.903 -175.116C299.989 -175.161 300.117 -175.203 300.207 -175.242C302.775 -175.769 305.958 -172.611 307.399 -170.196Z" fill="white"/>
<path d="M323.175 -176.612C325.359 -173.649 325.518 -171.007 323.496 -171.276C320.206 -171.716 314.963 -179.009 316.819 -180.564C316.871 -180.609 316.954 -180.651 317.013 -180.686C318.748 -181.255 321.716 -178.589 323.175 -176.612Z" fill="white"/>
<path d="M334.142 -183.712C336.222 -181.294 336.907 -179.058 335.524 -179.197C333.472 -179.403 327.866 -185.483 329.158 -186.93C330.185 -187.489 332.739 -185.34 334.142 -183.712Z" fill="white"/>
<path d="M340.002 -191.259C341.768 -189.431 342.691 -187.751 341.903 -187.796C340.735 -187.866 336.121 -192.405 336.449 -193.6C336.864 -194.082 338.817 -192.485 340.002 -191.259Z" fill="white"/>
<path d="M340.607 -199.045C341.883 -197.829 342.83 -196.637 342.522 -196.644C342.076 -196.651 338.731 -199.757 338.454 -200.582C338.444 -200.91 339.564 -200.041 340.607 -199.045Z" fill="white"/>
<path d="M335.727 -206.829C336.211 -206.389 336.937 -205.711 337.044 -205.582C336.923 -205.645 335.105 -207.315 334.822 -207.605C334.812 -207.615 334.794 -207.633 334.784 -207.647C334.891 -207.595 334.967 -207.507 335.054 -207.43C335.282 -207.235 335.506 -207.032 335.727 -206.829Z" fill="white"/>
<path d="M41.5726 -181.891L45.713 -187.059C43.3283 -184.18 41.5035 -181.807 40.8192 -180.916L41.5726 -181.891Z" fill="white"/>
<path d="M36.3828 -170.727C34.8864 -168.764 32.2909 -165.493 31.6999 -165.661C31.1538 -167.244 41.7777 -181.94 43.1843 -181.545C43.2154 -181.465 43.2155 -181.343 43.2085 -181.259C42.583 -179.152 38.0694 -172.943 36.3828 -170.727Z" fill="white"/>
<path d="M39.4128 -161.394C36.1364 -156.953 33.2887 -154.839 32.9293 -156.586C32.162 -160.322 42.2813 -174.414 44.4482 -172.625C44.5035 -172.579 44.5485 -172.495 44.5934 -172.44C45.2535 -170.406 41.7663 -164.585 39.4128 -161.394Z" fill="white"/>
<path d="M49.4807 -152.18C45.8346 -146.869 41.6321 -144.731 40.8372 -147.781C39.6137 -152.46 48.2435 -166.171 52.6085 -163.687C54.5508 -161.719 51.9483 -155.772 49.4807 -152.18Z" fill="white"/>
<path d="M66.3661 -143.63C62.5852 -137.421 56.8655 -135.342 55.6317 -139.727C54.0419 -145.374 61.7316 -157.128 67.3097 -155.276C70.4443 -153.459 68.6437 -147.373 66.3661 -143.63Z" fill="white"/>
<path d="M88.3743 -136.505C84.9321 -129.818 78.1409 -127.581 76.2643 -132.519C74.087 -138.253 80.7917 -149.284 87.2753 -147.956C91.2981 -146.404 90.3373 -140.328 88.3743 -136.505Z" fill="white"/>
<path d="M114.523 -130.891C111.575 -123.706 103.83 -121.327 101.373 -126.851C98.8431 -132.529 104.67 -142.89 111.499 -142.065C116.227 -140.79 116.113 -134.762 114.523 -130.891Z" fill="white"/>
<path d="M143.817 -126.872C141.529 -119.209 132.992 -116.69 129.979 -122.791C127.145 -128.521 131.918 -138.081 139.037 -137.687C144.27 -136.705 144.982 -130.772 143.817 -126.872Z" fill="white"/>
<path d="M175.15 -124.569C173.785 -117.057 165.452 -114.164 161.64 -119.88C158.074 -125.233 161.692 -134.678 168.922 -134.689C174.365 -134.032 175.841 -128.375 175.15 -124.569Z" fill="white"/>
<path d="M207.65 -124.042C207.197 -116.77 199.355 -113.549 194.938 -118.818C190.802 -123.752 193.21 -132.994 200.288 -133.395C205.745 -133.064 207.878 -127.728 207.65 -124.042Z" fill="white"/>
<path d="M240.39 -125.376C240.787 -118.797 234.303 -115.145 229.382 -119.178C224.208 -123.412 225.048 -133.081 232.199 -133.909C237.493 -133.895 240.175 -128.912 240.39 -125.376Z" fill="white"/>
<path d="M272.227 -128.657C273.347 -122.535 267.869 -118.762 262.92 -122.245C257.725 -125.904 257.356 -134.957 263.749 -136.131C268.602 -136.425 271.629 -131.938 272.227 -128.657Z" fill="white"/>
<path d="M300.992 -133.703C302.609 -128.465 299.143 -124.73 294.809 -127.039C289.583 -129.828 288.118 -138.458 292.604 -140.045C292.749 -140.097 292.953 -140.139 293.102 -140.181C297.01 -140.684 300.069 -136.694 300.992 -133.703Z" fill="white"/>
<path d="M324.716 -140.086C326.589 -135.656 324.806 -132.186 321.371 -133.573C316.795 -135.418 313.985 -143.769 317.358 -145.488C317.462 -145.541 317.614 -145.59 317.724 -145.635C320.665 -146.264 323.582 -142.77 324.716 -140.086Z" fill="white"/>
<path d="M343.072 -147.54C344.91 -144.025 344.378 -140.985 342.031 -141.624C338.755 -142.519 334.522 -150.381 337.293 -152.076C339.287 -152.75 341.872 -149.829 343.072 -147.54Z" fill="white"/>
<path d="M355.835 -155.797C357.611 -152.883 357.798 -150.272 356.198 -150.723C353.955 -151.352 349.88 -157.869 351.356 -159.424C352.514 -160.088 354.67 -157.701 355.835 -155.797Z" fill="white"/>
<path d="M362.681 -164.563C364.111 -162.463 364.782 -160.528 364.056 -160.576C362.971 -160.65 359.187 -165.874 359.636 -167.261C360.082 -167.827 361.685 -166.024 362.681 -164.563Z" fill="white"/>
<path d="M363.411 -173.617C364.13 -172.639 365.15 -171.073 365.06 -170.825C364.725 -170.727 361.953 -174.512 361.694 -175.427C361.69 -175.452 361.69 -175.49 361.7 -175.515C361.908 -175.577 362.91 -174.302 363.411 -173.617Z" fill="white"/>
<path d="M18.4141 -141.268C17.1872 -138.847 15.6148 -135.89 15.0963 -135.555C14.5019 -136.918 22.7999 -152.963 23.6639 -153.48C23.7088 -153.386 23.7192 -153.236 23.7019 -153.134C23.0867 -150.744 19.6756 -143.759 18.4141 -141.268Z" fill="white"/>
<path d="M21.7774 -130.915C19.289 -125.988 16.9424 -123.65 16.4378 -125.589C15.3837 -129.618 22.3372 -144.385 24.8913 -143.546C25.026 -143.501 25.1504 -143.34 25.2368 -143.225C26.0283 -141.023 23.692 -134.702 21.7774 -130.915Z" fill="white"/>
<path d="M32.9498 -120.697C30.1366 -114.883 26.3039 -112.56 25.0666 -115.914C22.9619 -121.613 29.791 -135.321 33.8691 -133.584C33.9797 -133.535 34.1145 -133.441 34.2182 -133.378C36.4992 -131.152 34.8507 -124.621 32.9498 -120.697Z" fill="white"/>
<path d="M51.6829 -111.214C48.6658 -104.376 43.1741 -102.199 41.1869 -107.056C38.6709 -113.21 44.7155 -125.949 50.7291 -123.895C54.3441 -121.854 53.4628 -115.254 51.6829 -111.214Z" fill="white"/>
<path d="M76.0885 -103.31C73.1474 -95.6335 65.8344 -93.6173 63.467 -99.83C60.9786 -106.357 66.4703 -117.084 73.1923 -115.673C77.7923 -113.936 77.654 -107.398 76.0885 -103.31Z" fill="white"/>
<path d="M105.095 -97.077C102.655 -89.3269 94.6755 -86.8774 91.3231 -92.8489C87.8083 -99.107 92.7574 -110.012 100.44 -109.052C105.804 -107.633 106.391 -101.197 105.095 -97.077Z" fill="white"/>
<path d="M137.586 -92.6149C135.623 -84.4001 126.613 -81.804 122.756 -88.3451C119.152 -94.4599 123.551 -104.596 131.403 -104.135C137.31 -103.056 138.575 -96.7485 137.586 -92.6149Z" fill="white"/>
<path d="M172.344 -90.0676C171.072 -82.0624 162.138 -79.0819 157.635 -85.1582C153.425 -90.8398 156.988 -100.833 165.003 -100.819C171.127 -100.103 172.983 -94.0999 172.344 -90.0676Z" fill="white"/>
<path d="M208.401 -89.4771C207.827 -81.7374 199.28 -78.39 194.334 -83.9668C189.71 -89.1766 192.358 -98.9393 200.231 -99.3622C206.344 -99.0057 208.687 -93.3696 208.401 -89.4771Z" fill="white"/>
<path d="M244.72 -90.9548C244.813 -83.6729 236.775 -79.9377 231.691 -84.896C226.842 -89.6271 228.556 -99.1138 236.042 -99.9559C241.948 -99.9594 244.672 -94.6936 244.72 -90.9548Z" fill="white"/>
<path d="M280.047 -94.593C280.728 -87.7898 273.729 -83.8414 268.701 -88.1917C263.907 -92.3392 264.671 -101.302 271.393 -102.511C276.784 -102.85 279.698 -98.0837 280.047 -94.593Z" fill="white"/>
<path d="M311.972 -100.187C313.109 -94.24 308.44 -90.2881 303.912 -93.3664C299.094 -96.6405 298.476 -105.526 304.227 -107.078C308.55 -107.647 311.36 -103.391 311.972 -100.187Z" fill="white"/>
<path d="M338.309 -107.269C339.702 -102.178 336.955 -98.4043 333.333 -100.431C329.134 -102.776 327.319 -111.445 331.725 -113.181C334.957 -113.891 337.521 -110.152 338.309 -107.269Z" fill="white"/>
<path d="M358.689 -115.537C360.096 -111.459 358.838 -108.08 356.329 -109.195C353.052 -110.652 350.46 -118.619 353.477 -120.411C355.651 -121.169 357.832 -118.018 358.689 -115.537Z" fill="white"/>
<path d="M372.873 -124.699C374.259 -121.278 373.917 -118.35 372.23 -119.199C370.025 -120.31 367.405 -126.998 369.03 -128.647C370.277 -129.385 372.026 -126.785 372.873 -124.699Z" fill="white"/>
<path d="M380.494 -134.43C381.631 -131.928 381.994 -129.702 381.209 -130.017C380.107 -130.461 377.546 -135.974 378.061 -137.403C378.52 -138.032 379.761 -136.044 380.494 -134.43Z" fill="white"/>
<path d="M381.326 -144.483C381.869 -143.372 382.66 -141.604 382.632 -141.335C382.328 -141.404 380.306 -145.671 380.089 -146.534C380.085 -146.562 380.082 -146.6 380.085 -146.628C380.286 -146.583 381.087 -144.976 381.326 -144.483Z" fill="white"/>
<path d="M5.92792 -108.723C4.42108 -103.506 4.14805 -102.783 4.0582 -102.545C4.07202 -102.863 4.072 -102.863 4.15149 -103.195C5.62376 -108.569 7.45896 -115.778 9.17661 -121.079C9.27338 -121.376 9.37357 -121.669 9.49107 -121.959C9.48761 -121.868 9.48762 -121.749 9.48416 -121.662C8.85862 -118.891 6.22514 -109.757 5.92792 -108.723Z" fill="white"/>
<path d="M9.52228 -97.664C8.06729 -92.8211 6.4153 -90.2144 5.67916 -91.6051C3.93731 -94.9001 8.4198 -112.207 10.7803 -111.305C10.9151 -111.253 11.0291 -111.075 11.1121 -110.956C12.0521 -108.569 10.7492 -101.745 9.52228 -97.664Z" fill="white"/>
<path d="M21.4622 -86.7482C19.6132 -80.5984 16.2955 -78.1419 14.6366 -81.692C11.7957 -87.7719 16.2885 -102.399 20.4289 -100.547C20.5464 -100.494 20.6846 -100.389 20.7952 -100.323C23.3458 -97.9155 22.7202 -90.9342 21.4622 -86.7482Z" fill="white"/>
<path d="M41.4738 -76.6182C39.4278 -69.4552 34.2506 -67.1839 31.5791 -72.2785C28.0401 -79.0362 32.5917 -91.6502 38.073 -90.2735C38.2458 -90.2316 38.467 -90.1372 38.6329 -90.0778C42.6143 -87.8765 42.6903 -80.8811 41.4738 -76.6182Z" fill="white"/>
<path d="M67.5462 -68.1768C65.59 -60.6224 58.9199 -58.2392 55.4431 -63.8579C51.403 -70.3885 55.488 -82.7999 62.9254 -81.2031C67.954 -79.3302 68.6555 -72.4607 67.5462 -68.1768Z" fill="white"/>
<path d="M98.5319 -61.513C96.7521 -53.5463 88.6649 -51.041 84.5764 -57.1872C80.2184 -63.7388 84.2205 -75.0915 92.3733 -74.0502C98.214 -72.5303 99.4893 -65.8039 98.5319 -61.513Z" fill="white"/>
<path d="M133.242 -56.7471C131.721 -48.3646 122.39 -45.716 117.879 -52.3899C113.584 -58.7494 117.465 -69.2564 125.828 -68.7462C132.236 -67.5896 134.023 -61.0345 133.242 -56.7471Z" fill="white"/>
<path d="M170.373 -54.0251C169.267 -45.8732 159.877 -42.8193 154.914 -48.997C150.186 -54.8847 153.576 -65.21 162.13 -65.1786C168.755 -64.4169 170.936 -58.1972 170.373 -54.0251Z" fill="white"/>
<path d="M208.894 -53.3893C208.182 -45.0347 198.294 -41.8585 193.338 -48.3891C189.139 -53.9204 192.125 -63.229 200.167 -63.6483C206.758 -63.2779 209.239 -57.4286 208.894 -53.3893Z" fill="white"/>
<path d="M247.705 -54.9686C247.442 -46.9005 238.121 -43.305 233.038 -49.3115C228.645 -54.4968 230.971 -63.4455 238.802 -64.3051C245.151 -64.3226 247.83 -58.8577 247.705 -54.9686Z" fill="white"/>
<path d="M285.456 -58.854C285.608 -51.7503 278.025 -47.7074 272.976 -52.201C268.175 -56.4743 269.648 -65.762 276.899 -67.0478C282.674 -67.4252 285.38 -62.4844 285.456 -58.854Z" fill="white"/>
<path d="M319.574 -64.8328C320.096 -58.3546 314.22 -54.2699 309.897 -58.11C305.739 -61.8068 306.399 -70.441 312.23 -71.9889C316.847 -72.6144 319.304 -68.1803 319.574 -64.8328Z" fill="white"/>
<path d="M347.728 -72.3973C348.481 -66.8171 344.745 -62.8198 341.279 -65.4964C337.539 -68.3861 337.197 -76.8454 341.756 -78.617C345.195 -79.3822 347.317 -75.4408 347.728 -72.3973Z" fill="white"/>
<path d="M369.52 -81.2343C370.36 -76.6255 368.37 -73.0299 365.912 -74.7106C363.033 -76.6814 361.931 -84.6026 365.034 -86.4091C367.329 -87.2303 369.04 -83.8759 369.52 -81.2343Z" fill="white"/>
<path d="M384.697 -91.0253C385.509 -87.3878 384.756 -84.264 383.283 -85.162C381.338 -86.3501 379.81 -93.5131 381.607 -95.2776C382.91 -96.0673 384.199 -93.2686 384.697 -91.0253Z" fill="white"/>
<path d="M392.863 -101.431C393.557 -98.7299 393.62 -96.3364 392.987 -96.6893C392.099 -97.1855 390.523 -103.133 391.118 -104.653C391.581 -105.323 392.417 -103.174 392.863 -101.431Z" fill="white"/>
<path d="M393.78 -112.175C394.115 -110.98 394.63 -109.08 394.668 -108.79C394.509 -109.073 393.265 -113.587 393.078 -114.436C393.071 -114.468 393.064 -114.506 393.061 -114.537C393.154 -114.37 393.503 -113.161 393.78 -112.175Z" fill="white"/>
<path d="M-0.452287 -73.7145C-0.566337 -72.4357 -0.666529 -71.1568 -0.75293 -69.8744L0.836822 -85.3991C0.308047 -81.5729 -0.175803 -76.8523 -0.452287 -73.7145Z" fill="white"/>
<path d="M3.26258 -62.2958C2.75455 -57.5611 1.88705 -54.8147 1.15091 -55.6219C-0.701527 -57.6485 0.394049 -76.3424 2.38128 -76.6778C2.58173 -76.7128 2.72341 -76.4926 2.84782 -76.2969C3.90192 -73.7951 3.72224 -66.6006 3.26258 -62.2958Z" fill="white"/>
<path d="M15.5899 -51.02C14.8537 -45.052 12.4449 -42.3264 10.4335 -45.1847C6.70442 -50.4854 8.06261 -66.2861 12.1857 -65.5523C12.4276 -65.5104 12.7214 -65.3287 12.9322 -65.1994C15.659 -62.6836 16.129 -55.3913 15.5899 -51.02Z" fill="white"/>
<path d="M36.2502 -40.5623C35.3447 -33.7137 31.0765 -31.1245 27.7967 -35.4363C22.941 -41.8132 24.745 -55.2309 30.4026 -54.8396C30.7551 -54.8151 31.2147 -54.6614 31.55 -54.5426C35.7594 -52.2399 36.8343 -44.9825 36.2502 -40.5623Z" fill="white"/>
<path d="M63.1705 -31.8441C62.1475 -24.2093 55.8263 -21.7948 51.7033 -27.4659C46.6298 -34.4473 49.6055 -46.3693 56.1892 -45.4364C56.407 -45.4049 56.6938 -45.3281 56.9115 -45.2792C62.2062 -43.3294 63.758 -36.2502 63.1705 -31.8441Z" fill="white"/>
<path d="M95.1622 -24.971C94.0977 -16.8016 86.3078 -14.3277 81.5039 -20.6312C76.3959 -27.3295 79.2679 -38.9093 87.6488 -37.8226C93.7798 -36.2397 95.7324 -29.3562 95.1622 -24.971Z" fill="white"/>
<path d="M131.002 -20.0473C129.955 -11.497 120.755 -8.8903 115.616 -15.69C110.726 -22.1647 113.929 -32.829 122.559 -32.2874C129.267 -31.0924 131.534 -24.4115 131.002 -20.0473Z" fill="white"/>
<path d="M169.336 -17.2274C168.417 -8.90775 159.02 -5.88182 153.625 -12.1713C148.382 -18.2862 151.396 -28.587 160.437 -28.5416C167.352 -27.7624 169.802 -21.4554 169.336 -17.2274Z" fill="white"/>
<path d="M209.115 -16.5816C208.32 -8.27589 198.131 -5.0753 193.082 -11.5465C188.617 -17.27 191.606 -26.533 200.101 -26.9593C206.969 -26.5889 209.505 -20.6663 209.115 -16.5816Z" fill="white"/>
<path d="M249.188 -18.2028C248.566 -10.1662 238.848 -6.52519 233.892 -12.4723C229.527 -17.7136 232.233 -26.7705 240.358 -27.651C246.956 -27.6825 249.496 -22.1443 249.188 -18.2028Z" fill="white"/>
<path d="M288.179 -22.2177C287.743 -14.6702 279 -10.7218 274.42 -16.0051C270.767 -20.219 272.188 -29.1572 280.019 -30.5234C286.001 -30.9287 288.393 -25.911 288.179 -22.2177Z" fill="white"/>
<path d="M323.421 -28.3882C323.231 -21.6864 316.962 -17.5773 312.942 -21.5188C309.013 -25.3694 310.533 -34.0524 316.747 -35.6841C321.513 -36.3376 323.518 -31.8125 323.421 -28.3882Z" fill="white"/>
<path d="M352.507 -36.2043C352.501 -30.0686 347.925 -26.0503 344.856 -29.4851C341.859 -32.8395 342.81 -40.8342 347.393 -42.5883C350.925 -43.3885 352.507 -39.3386 352.507 -36.2043Z" fill="white"/>
<path d="M375.03 -45.3277C375.157 -40.2366 372.479 -36.5362 370.336 -38.8389C368.052 -41.2918 368.352 -48.9126 371.47 -50.6982C373.813 -51.5438 374.96 -48.0671 375.03 -45.3277Z" fill="white"/>
<path d="M390.721 -55.4402C390.911 -51.5756 389.77 -48.3854 388.547 -49.3428C386.947 -50.5972 386.632 -58.0748 388.54 -59.9023C389.853 -60.7234 390.607 -57.7882 390.721 -55.4402Z" fill="white"/>
<path d="M399.177 -66.1954C399.378 -63.3826 399.126 -60.8912 398.676 -61.2546C398.033 -61.7787 397.539 -68.0543 398.206 -69.6546C398.504 -70.1124 398.749 -69.2563 398.901 -68.4597C399.018 -67.8447 399.119 -67.041 399.177 -66.1954Z" fill="white"/>
<path d="M3.55605 -25.9077C3.74614 -23.6469 3.98113 -19.7893 3.39015 -19.3211C1.75544 -19.6496 -0.777815 -39.1052 0.652988 -40.3491C0.815422 -40.3247 0.856893 -40.2758 1.04006 -39.9753C2.16673 -37.4525 3.18971 -30.2335 3.55605 -25.9077Z" fill="white"/>
<path d="M15.8642 -14.6599C16.1614 -9.31027 14.7444 -6.64424 12.7019 -8.71629C8.63758 -12.8464 6.6573 -28.6925 10.1445 -29.1468C10.5281 -29.1957 10.8909 -28.965 11.1847 -28.7798C14.0152 -26.2326 15.6257 -18.9892 15.8642 -14.6599Z" fill="white"/>
<path d="M36.4901 -4.21217C36.6456 1.97604 33.5352 4.50934 29.9651 1.10599C24.5184 -4.08986 23.3675 -17.6787 28.3269 -18.2832C28.9456 -18.3601 29.5158 -18.154 29.972 -17.9897C34.2852 -15.6766 36.3795 -8.54147 36.4901 -4.21217Z" fill="white"/>
<path d="M63.3568 4.48196C63.3257 11.3166 58.2003 13.7521 53.5623 9.13974C47.49 3.09482 47.8875 -8.84833 54.1637 -8.85881C54.5922 -8.85881 55.159 -8.74002 55.5772 -8.64917C60.9755 -6.68893 63.3741 0.208588 63.3568 4.48196Z" fill="white"/>
<path d="M95.2866 11.3508C95.0308 18.9297 87.6902 21.1834 82.4059 15.3027C76.5479 8.78259 78.6837 -1.72791 85.7651 -1.23523C86.0174 -1.21777 86.3492 -1.15842 86.598 -1.12347C92.8258 0.455902 95.4283 7.12283 95.2866 11.3508Z" fill="white"/>
<path d="M131.061 16.2638C130.581 24.1502 121.682 26.5297 116.183 20.2471C110.684 13.9611 113.56 4.33112 120.914 4.39053C121.187 4.39401 121.55 4.43246 121.823 4.44995C128.621 5.64145 131.317 12.0743 131.061 16.2638Z" fill="white"/>
<path d="M169.326 19.0801C168.624 27.1761 158.584 29.6744 153.293 23.0669C148.662 17.284 151.531 8.15372 160.043 8.21661C167.027 8.98535 169.675 15.0338 169.326 19.0801Z" fill="white"/>
<path d="M209.033 19.7267C208.172 27.5362 198.17 30.4783 193.062 24.4264C188.59 19.1292 191.607 10.205 200.036 9.79617C206.955 10.1596 209.461 15.8237 209.033 19.7267Z" fill="white"/>
<path d="M249.039 18.1053C248.02 25.9567 237.468 29.1258 233.138 22.8817C229.979 18.3253 232.419 9.95334 240.6 9.08328C247.232 9.04135 249.527 14.3351 249.039 18.1053Z" fill="white"/>
<path d="M287.966 14.105C286.884 21.5476 277.283 25.1187 273.499 19.4861C270.748 15.3943 273.125 7.4136 280.511 6.13824C286.511 5.72592 288.484 10.5479 287.966 14.105Z" fill="white"/>
<path d="M323.155 7.94788C322.177 14.5764 315.085 18.4374 311.826 14.1116C308.978 10.3309 311.532 2.47946 317.425 0.955994C322.187 0.288605 323.642 4.64236 323.155 7.94788Z" fill="white"/>
<path d="M352.205 0.145111C351.369 5.91751 346.454 9.80307 343.99 6.64084C341.574 3.5415 343.593 -4.28548 348.176 -6.01161C351.687 -6.81877 352.648 -2.89832 352.205 0.145111Z" fill="white"/>
<path d="M374.708 -8.96057C374.038 -4.12112 370.99 -0.525635 369.365 -2.65359C367.634 -4.92131 369.12 -12.4269 372.244 -14.1809C374.563 -15.0405 375.082 -11.6441 374.708 -8.96057Z" fill="white"/>
<path d="M390.393 -19.0626C389.892 -15.1561 388.233 -11.9554 387.386 -13.2587C386.36 -14.8346 387.372 -21.7007 389.245 -23.4443C390.531 -24.2689 390.69 -21.3757 390.393 -19.0626Z" fill="white"/>
<path d="M398.86 -29.7928C398.632 -27.7731 398.127 -24.9428 397.764 -24.8799C397.318 -25.2643 398.079 -31.7426 398.746 -33.2311C398.818 -33.3499 398.835 -33.3708 398.898 -33.3778C399.143 -33.1542 399.029 -31.3058 398.86 -29.7928Z" fill="white"/>
<path d="M10.3658 8.50687C11.0224 10.8026 11.8 13.6992 11.7724 14.4819C11.7413 14.4924 11.7033 14.5029 11.6722 14.5134C10.466 12.9025 5.52038 -2.97501 5.5895 -5.0121C5.6206 -5.02608 5.6621 -5.04355 5.68975 -5.05753C5.76578 -4.95619 5.85562 -4.80948 5.91783 -4.70116C7.12744 -2.17136 9.28748 4.74014 10.3658 8.50687Z" fill="white"/>
<path d="M22.2433 19.3637C23.294 23.6196 22.9691 26.0271 21.445 25.2199C17.8438 23.3086 12.1655 7.25284 14.6227 5.91458C15.0029 5.7084 15.3866 5.95999 15.7909 6.22552C18.6076 8.67847 21.2584 15.3838 22.2433 19.3637Z" fill="white"/>
<path d="M42.1443 29.4374C43.1742 34.6892 41.1732 37.0374 37.769 34.567C31.8453 30.2691 28.0125 16.8794 32.5745 16.4322C33.1171 16.3797 33.6666 16.5824 34.1056 16.7466C38.3703 18.9759 41.3736 25.51 42.1443 29.4374Z" fill="white"/>
<path d="M68.0704 37.8335C68.8791 43.6723 65.0498 45.933 60.3392 42.4004C53.8107 37.4981 51.6818 26.3935 57.1355 25.6597C57.8543 25.5654 58.5455 25.7226 59.0985 25.8484C64.4035 27.7247 67.5382 33.9864 68.0704 37.8335Z" fill="white"/>
<path d="M98.8846 44.462C99.3615 50.8634 93.386 53.0228 87.8598 48.4489C81.2242 42.9525 81.1792 33.3086 87.7872 33.0465C88.2607 33.0291 88.8932 33.1094 89.3632 33.1758C95.4631 34.6853 98.6047 40.6848 98.8846 44.462Z" fill="white"/>
<path d="M133.407 49.2035C133.456 56.2862 125.268 58.3023 119.503 52.6243C113.628 46.8379 115.622 38.4169 122.835 38.5427C123.101 38.5462 123.454 38.5846 123.72 38.6056C130.359 39.7342 133.383 45.4821 133.407 49.2035Z" fill="white"/>
<path d="M170.335 51.9189C169.885 59.1519 160.475 61.2833 155.08 55.3746C150.369 50.2172 152.768 42.1177 160.997 42.212C167.808 42.9388 170.556 48.3269 170.335 51.9189Z" fill="white"/>
<path d="M208.656 52.5543C207.723 59.8013 197.327 62.1354 192.769 56.1185C189.112 51.293 192.219 44.0705 199.975 43.7246C206.704 44.0531 209.102 49.0846 208.656 52.5543Z" fill="white"/>
<path d="M247.27 50.9925C245.922 58.0543 235.802 60.8776 231.8 55.3044C228.908 51.2756 231.551 43.8329 239.476 43.0258C245.911 42.9594 247.909 47.6451 247.27 50.9925Z" fill="white"/>
<path d="M284.845 47.1347C283.189 53.8471 273.892 57.0687 270.63 52.0545C268.28 48.4415 271.128 41.3204 278.306 40.115C284.115 39.6887 285.626 43.962 284.845 47.1347Z" fill="white"/>
<path d="M318.817 41.1953C317.054 47.4359 309.465 50.8636 307.215 46.433C305.414 42.8934 308.711 36.3802 314.175 34.9965C318.772 34.3291 319.657 38.2182 318.817 41.1953Z" fill="white"/>
<path d="M346.866 33.6684C345.19 39.1543 339.764 42.7114 338.198 39.35C336.816 36.3834 339.736 29.7724 343.994 28.207C347.374 27.3999 347.709 30.915 346.866 33.6684Z" fill="white"/>
<path d="M368.606 24.8771C367.203 29.3007 363.909 32.6552 362.827 30.7578C361.642 28.6823 364.137 21.921 367.265 20.2088C369.48 19.3633 369.383 22.4311 368.606 24.8771Z" fill="white"/>
<path d="M383.763 15.1354C382.622 18.7414 380.666 21.7465 380.217 20.5899C379.671 19.1782 381.779 12.8223 383.639 11.1486C384.738 10.4148 384.382 12.5987 384.247 13.287C384.171 13.6714 384.026 14.3038 383.763 15.1354Z" fill="white"/>
<path d="M391.958 4.77161C391.457 6.41736 390.583 9.03101 390.296 9.40836C390.286 9.40137 390.272 9.39435 390.258 9.38736C390.258 8.63959 392.007 2.98602 392.656 1.63379C392.681 1.59186 392.715 1.53253 392.746 1.49411C392.757 1.5011 392.774 1.508 392.784 1.51498C392.791 1.99719 392.155 4.13217 391.958 4.77161Z" fill="white"/>
<path d="M23.1119 40.1225C24.0312 41.922 24.9366 43.7354 25.9009 45.5105C23.1084 40.1854 19.3136 33.1166 16.7838 27.6587C16.8426 27.7635 16.9186 27.9068 16.9739 28.0152C19.0303 32.0439 21.0521 36.0937 23.1119 40.1225Z" fill="white"/>
<path d="M34.1915 50.2452C35.8089 53.7079 36.2306 55.8219 35.2352 55.5074C32.3252 54.5884 23.5918 39.2036 25.2922 37.9946C25.5341 37.8233 25.8866 38.061 26.2599 38.3161C28.9452 40.5873 32.5153 46.6567 34.1915 50.2452Z" fill="white"/>
<path d="M52.7462 59.6406C54.3256 63.6065 53.624 65.7554 51.1149 64.6408C45.4954 62.1425 38.2757 49.2279 41.8078 47.9909C42.3677 47.7953 42.931 48.0084 43.5289 48.2356C47.5794 50.3076 51.3568 56.1534 52.7462 59.6406Z" fill="white"/>
<path d="M76.9222 67.4709C78.3046 71.926 76.1239 74.0399 72.1563 72.0937C65.3099 68.7288 60.2433 58.0925 64.8261 56.7158C65.6348 56.4747 66.3502 56.6424 67.1071 56.8206C72.1356 58.5572 75.875 64.0955 76.9222 67.4709Z" fill="white"/>
<path d="M105.655 73.6525C106.73 78.8659 102.206 80.8016 96.8559 77.4193C90.4139 73.3485 88.0638 65.1792 92.9264 63.764C93.9425 63.467 94.7719 63.5893 95.6532 63.7151C101.425 65.1093 104.974 70.3645 105.655 73.6525Z" fill="white"/>
<path d="M137.844 78.069C138.387 84.0406 131.015 85.6898 125.326 80.8713C119.724 76.1263 120.353 69.2322 126.429 68.778C126.913 68.743 127.562 68.7849 128.046 68.8199C134.319 69.8611 137.55 74.8543 137.844 78.069Z" fill="white"/>
<path d="M172.278 80.6095C172.084 87.0528 162.697 88.5517 157.721 82.9366C153.708 78.4081 155.858 72.0907 163.188 72.2025C169.613 72.8594 172.371 77.5137 172.278 80.6095Z" fill="white"/>
<path d="M208.012 81.1999C207.031 87.6885 196.656 89.3868 192.809 83.6877C189.996 79.5227 192.937 73.8831 199.915 73.6001C206.25 73.8831 208.465 78.2158 208.012 81.1999Z" fill="white"/>
<path d="M244.024 79.7463C242.334 86.1058 232.184 88.3245 229.146 82.9959C227.159 79.5087 229.934 73.5931 237.109 72.8907C243.157 72.8069 244.795 76.8497 244.024 79.7463Z" fill="white"/>
<path d="M279.073 76.1509C276.823 82.2413 267.447 84.8933 265.332 80.0399C263.96 76.8916 267.129 71.2032 273.626 70.1409C279.073 69.7181 280.089 73.401 279.073 76.1509Z" fill="white"/>
<path d="M310.764 70.616C308.324 76.1158 301.122 79.1348 299.598 75.2947C298.388 72.2477 302.173 66.5593 307.315 65.2874C311.611 64.641 311.919 68.0128 310.764 70.616Z" fill="white"/>
<path d="M336.935 63.6032C334.515 68.4986 329.235 71.6503 328.371 68.7151C327.614 66.14 331.249 60.2942 335.276 58.8441C338.424 58.0684 338.141 61.1608 336.935 63.6032Z" fill="white"/>
<path d="M357.228 55.406C355.182 59.3195 351.757 62.3489 351.218 60.7206C350.62 58.9142 354.042 52.8797 357.014 51.2898C358.953 50.5281 358.31 52.9985 357.702 54.4102C357.574 54.7141 357.38 55.1125 357.228 55.406Z" fill="white"/>
<path d="M371.381 46.3208C369.746 49.4096 367.693 52.0617 367.454 51.3943C367.147 50.5208 370.413 44.3606 372.238 42.7743C372.441 42.6345 372.863 42.3409 372.697 43.1795C372.569 43.826 372.079 45 371.381 46.3208Z" fill="white"/>
<path d="M376.866 40.8768C378.11 38.5427 379.295 36.1736 380.501 33.8185C380.526 33.7731 380.55 33.7242 380.574 33.6788L376.866 40.8768Z" fill="white"/>
<path d="M51.1465 77.4405C52.446 79.1946 53.9736 81.3925 53.8837 81.9166C52.7363 82.4302 40.9616 68.1669 41.283 66.6539C41.4419 66.5771 41.5249 66.6121 42.0226 66.965C44.5593 69.044 48.869 74.3691 51.1465 77.4405Z" fill="white"/>
<path d="M67.7979 85.8715C69.6745 88.7297 69.9891 90.4908 68.5755 90.2532C64.6598 89.5893 54.264 77.6007 56.075 75.8361C56.4517 75.4692 57.2363 75.7768 57.7028 75.9619C61.5909 77.9012 65.9593 83.0691 67.7979 85.8715Z" fill="white"/>
<path d="M89.4919 92.8989C91.2268 96.1345 90.4388 97.8885 87.6187 97.0743C81.5499 95.3167 73.7082 85.6205 76.8601 83.772C77.5513 83.3667 78.557 83.6113 79.1549 83.7545C83.7341 85.3059 87.954 90.0371 89.4919 92.8989Z" fill="white"/>
<path d="M115.274 98.4439C116.746 102.281 114.109 103.993 109.63 102.106C103.164 99.3804 98.5537 91.9203 102.269 90.1907C103.237 89.7399 104.412 89.9147 105.113 90.016C110.37 91.2599 114.216 95.694 115.274 98.4439Z" fill="white"/>
<path d="M144.16 102.413C145.127 107.095 139.553 108.542 134.054 105.034C128.652 101.588 127.453 96.0431 131.842 94.8061C132.862 94.5196 133.684 94.5825 134.559 94.6524C140.268 95.5714 143.61 99.7434 144.16 102.413Z" fill="white"/>
<path d="M175.059 104.695C175.139 109.95 166.958 111.114 162.189 106.523C158.208 102.693 160.16 97.8325 165.728 97.7067C165.96 97.7032 166.271 97.7172 166.506 97.7207C172.343 98.2972 175.021 102.144 175.059 104.695Z" fill="white"/>
<path d="M207.132 105.226C206.178 110.527 197.013 111.889 193.512 107.253C191.179 104.16 193.093 99.2194 199.864 98.9713C205.611 99.2054 207.574 102.77 207.132 105.226Z" fill="white"/>
<path d="M239.456 103.922C237.458 109.37 227.75 110.984 225.784 106.193C224.661 103.454 227.211 98.9117 233.619 98.3072C239.1 98.2093 240.33 101.532 239.456 103.922Z" fill="white"/>
<path d="M270.917 100.698C268.301 105.614 259.74 107.875 258.372 104.013C257.456 101.428 260.829 96.7106 266.711 95.7742C271.636 95.3724 272.137 98.4123 270.917 100.698Z" fill="white"/>
<path d="M299.373 95.7325C296.415 100.254 289.717 102.847 288.984 99.7509C288.442 97.4622 292.219 92.5388 297.199 91.3368C301.073 90.7358 300.804 93.5451 299.373 95.7325Z" fill="white"/>
<path d="M322.874 89.4393C320.019 93.3213 315.222 96.0608 314.728 94.0901C314.279 92.2975 318.36 86.913 322.449 85.4734C325.124 84.7955 324.308 87.1576 323.503 88.4994C323.33 88.7894 323.074 89.1632 322.874 89.4393Z" fill="white"/>
<path d="M341.105 82.0878C338.665 85.2151 335.341 87.8463 335.075 86.8575C334.746 85.638 339.156 80.0822 341.994 78.6042C342.865 78.2513 343.11 78.5552 342.73 79.5022C342.609 79.8097 342.204 80.6762 341.105 82.0878Z" fill="white"/>
<path d="M353.831 73.9252C352.39 75.7526 350.088 78.3628 349.618 78.4571C349.449 77.8876 354.132 72.1187 355.618 70.8748C355.781 70.756 355.815 70.735 355.905 70.7175C355.915 70.7245 355.929 70.735 355.936 70.742C355.946 71.2207 354.184 73.4779 353.831 73.9252Z" fill="white"/>
<path d="M72.5297 100.404C75.7922 103.321 76.2968 103.769 76.5456 104.034C76.3106 103.898 76.3106 103.898 75.6885 103.409L72.1219 100.505L64.9229 94.219C63.6373 93.031 62.2894 91.7592 62.006 91.3329C62.1166 91.3398 62.1166 91.3399 62.4899 91.6194C64.1695 92.9437 66.9343 95.407 72.5297 100.404Z" fill="white"/>
<path d="M86.7852 107.623C87.6146 108.43 90.2447 111.061 89.2666 111.086C86.9476 111.142 74.2225 100.687 74.9379 99.3102C75.083 99.0307 75.7466 99.3033 76.144 99.464C79.4342 101.061 84.3106 105.219 86.7852 107.623Z" fill="white"/>
<path d="M105.348 113.636C107.242 115.806 107.487 117.116 105.97 116.98C101.529 116.578 90.8668 107.713 93.0061 106.201C93.4416 105.893 94.3056 106.11 94.8205 106.235C98.9816 107.612 103.485 111.505 105.348 113.636Z" fill="white"/>
<path d="M127.415 118.385C128.981 120.768 128.141 122.12 125.414 121.596C119.753 120.51 112.416 113.832 114.808 111.938C115.509 111.383 116.705 111.568 117.417 111.676C121.962 112.728 126.002 116.233 127.415 118.385Z" fill="white"/>
<path d="M152.142 121.785C153.386 124.986 150.017 126.209 145.337 124.252C139.787 121.932 136.96 117.271 140.291 115.94C141.249 115.559 142.365 115.65 143.035 115.705C147.985 116.478 151.34 119.724 152.142 121.785Z" fill="white"/>
<path d="M178.589 123.738C178.959 127.921 171.608 128.536 167.35 124.678C164.308 121.921 165.401 118.728 169.513 118.354C169.904 118.319 170.433 118.329 170.826 118.336C175.893 118.812 178.416 121.782 178.589 123.738Z" fill="white"/>
<path d="M206.042 124.196C205.116 128.337 196.77 129.154 194.129 125.367C192.363 122.83 194.641 119.584 199.818 119.416C204.808 119.598 206.46 122.32 206.042 124.196Z" fill="white"/>
<path d="M233.716 123.082C231.566 127.205 223.303 128.463 221.924 124.878C221.122 122.795 223.586 119.311 229.123 118.815C233.878 118.71 234.673 121.247 233.716 123.082Z" fill="white"/>
<path d="M260.655 120.328C257.569 124.277 249.745 125.957 249.637 122.694C249.575 120.768 252.803 117.348 257.818 116.572C261.64 116.24 262.266 118.263 260.655 120.328Z" fill="white"/>
<path d="M285.028 116.079C281.662 119.556 275.659 121.663 275.721 119.346C275.77 117.585 279.889 113.706 284.195 112.693C287.368 112.183 286.573 114.175 285.709 115.3C285.519 115.544 285.243 115.855 285.028 116.079Z" fill="white"/>
<path d="M305.163 110.691C301.89 113.71 297.328 115.988 297.543 114.503C297.74 113.109 302.447 108.808 305.972 107.599C307.662 107.155 307.309 108.084 306.95 108.675C306.711 109.059 306.214 109.723 305.163 110.691Z" fill="white"/>
<path d="M320.79 104.397C318.54 106.372 315.388 108.629 314.849 108.465C314.569 107.927 320.147 102.926 322.743 101.62C322.992 101.515 323.507 101.298 323.285 101.763C323.113 102.126 322.37 103.01 320.79 104.397Z" fill="white"/>
<path d="M331.708 97.4092C329.803 99.0794 327.647 100.882 327.246 101.172C327.377 100.97 333.512 95.5923 334.355 94.9179C334.407 94.8795 334.476 94.827 334.528 94.7921C334.462 94.9843 332.167 97.0074 331.708 97.4092Z" fill="white"/>
<path d="M109.236 124.433C112.485 126.383 112.796 126.593 113.065 126.795C112.215 127.005 98.6157 119.321 97.5858 118.05C97.603 118.025 97.6272 117.994 97.6445 117.973C97.8484 118.018 97.9348 118.05 98.3254 118.217C100.161 119.073 103.015 120.702 109.236 124.433Z" fill="white"/>
<path d="M124.108 129.252C126.679 130.982 126.634 131.3 126.62 131.422C125.459 132.201 112.257 125.136 112.354 123.787C112.378 123.427 113.159 123.633 113.674 123.766C117.96 125.136 124.046 129.214 124.108 129.252Z" fill="white"/>
<path d="M141.785 133.057C143.295 134.336 143.565 135.136 142.511 135.189C139.024 135.37 128.994 129.745 130.314 128.347C130.667 127.973 131.638 128.13 132.219 128.221C136.034 129.074 140.109 131.639 141.785 133.057Z" fill="white"/>
<path d="M161.591 135.779C162.718 137.278 161.868 138.131 159.528 137.851C155.201 137.334 148.88 133.518 150.625 131.915C151.251 131.342 152.643 131.464 153.238 131.516C157.236 132.117 160.53 134.371 161.591 135.779Z" fill="white"/>
<path d="M182.776 137.348C183.388 139.944 177.72 140.269 173.984 137.851C171.509 136.25 171.537 134.35 174.043 133.787C174.786 133.619 175.391 133.637 176.03 133.654C180.17 134.018 182.465 136.034 182.776 137.348Z" fill="white"/>
<path d="M204.775 137.718C203.873 140.618 196.314 140.811 194.911 137.97C194.144 136.411 195.958 134.605 199.787 134.503C203.876 134.629 205.165 136.46 204.775 137.718Z" fill="white"/>
<path d="M226.949 136.827C224.65 139.594 217.652 140.353 217.348 137.865C217.178 136.488 219.535 134.35 223.759 133.997C227.26 133.902 228.141 135.391 226.949 136.827Z" fill="white"/>
<path d="M248.542 134.623C245.702 136.873 239.311 138.543 239.46 136.559C239.56 135.245 243.054 132.736 247.174 132.124C250.163 131.848 249.963 133.057 249.372 133.816C249.23 134.004 248.909 134.333 248.542 134.623Z" fill="white"/>
<path d="M268.083 131.223C264.882 133.291 259.996 134.93 260.037 133.917C260.079 132.928 264.91 129.772 268.636 128.927C270.53 128.605 270.232 129.304 269.883 129.748C269.662 130.035 269.168 130.52 268.083 131.223Z" fill="white"/>
<path d="M284.236 126.908C281.558 128.487 277.604 130.304 277.234 130C277.248 129.378 283.369 125.699 286.306 124.727C286.614 124.643 287.26 124.465 287.05 124.843C286.887 125.133 286.061 125.832 284.236 126.908Z" fill="white"/>
<path d="M296.786 121.861C294.27 123.312 291.322 124.842 290.969 124.947C291.111 124.741 298.116 120.638 299.799 119.824C299.91 119.775 300.017 119.723 300.135 119.695C300.097 119.947 297.124 121.666 296.786 121.861Z" fill="white"/>
</g>
<defs>
<radialGradient id="paint0_radial_24_16785" cx="0" cy="0" r="1" gradientUnits="userSpaceOnUse" gradientTransform="translate(199.248 -60.0003) scale(200 200)">
<stop offset="0.364" stop-color="#4E9C1F"/>
<stop offset="1" stop-color="white" stop-opacity="0"/>
</radialGradient>
<clipPath id="clip0_24_16785">
<rect width="400" height="400" fill="white" transform="translate(0 -260)"/>
</clipPath>
</defs>
</svg>
