<svg width="153" height="48" viewBox="0 0 153 48" fill="none" xmlns="http://www.w3.org/2000/svg">
<g clip-path="url(#clip0_24_17237)">
<path d="M129.141 20.3967V23.1311L128.405 22.3117C127.091 20.8497 125.23 20.1082 122.874 20.1082C121.116 20.1082 119.505 20.5029 118.086 21.2818C116.674 22.0572 115.551 23.1787 114.747 24.6156C113.939 26.0592 113.529 27.7614 113.529 29.6757C113.529 31.59 113.939 33.2926 114.747 34.7359C115.551 36.1737 116.675 37.2955 118.086 38.0696C119.504 38.8485 121.115 39.2433 122.874 39.2433C125.392 39.2433 127.335 38.4454 128.649 36.8715L129.396 35.9765V38.955H133.962V20.3967H129.141ZM123.327 35.8709C119.986 35.8709 117.279 33.1822 117.279 29.8655C117.279 26.5488 119.986 23.8602 123.327 23.8602C126.667 23.8602 129.374 26.5488 129.374 29.8655C129.374 33.1822 126.667 35.8709 123.327 35.8709Z" fill="#25303C"/>
<path d="M110.042 24.6602C109.237 23.2272 108.112 22.1001 106.7 21.3102C105.282 20.5172 103.684 20.115 101.951 20.115C99.4082 20.115 97.4528 20.9165 96.1395 22.4968L95.3927 23.3955V20.4048H90.8267V46.0609H95.647V36.3058L96.3816 37.113C97.7188 38.5829 99.5926 39.3278 101.951 39.3278C103.685 39.3278 105.283 38.9256 106.7 38.1326C108.113 37.3427 109.237 36.2156 110.042 34.7826C110.85 33.3451 111.259 31.642 111.259 29.7212C111.259 27.8014 110.85 26.0983 110.042 24.6602ZM101.426 35.942C98.0853 35.942 95.3775 33.2424 95.3775 29.9122C95.3775 26.5819 98.0853 23.8823 101.426 23.8823C104.766 23.8823 107.474 26.5819 107.474 29.9122C107.474 33.2424 104.766 35.942 101.426 35.942Z" fill="#25303C"/>
<path d="M84.3399 20.4395L78.5198 34.3288L72.7384 20.4395H67.7998L76.102 39.6329L75.9639 39.976C75.5364 40.9318 75.0657 41.5944 74.5193 42.0163C73.9589 42.4472 73.2344 42.6656 72.3655 42.6656C72.1295 42.6656 71.8916 42.6424 71.6527 42.6065V46.3373C71.9507 46.3658 72.2495 46.3852 72.5475 46.3852C74.3197 46.3852 75.8498 45.9478 77.0951 45.0852C78.3429 44.2198 79.4137 42.6882 80.2767 40.5326L88.8809 20.4392L84.3399 20.4395Z" fill="#25303C"/>
<path d="M61.0336 20.4036V23.138L60.2968 22.3185C58.9826 20.8566 57.1219 20.115 54.7664 20.115C53.0083 20.115 51.3973 20.5097 49.9782 21.2887C48.5665 22.064 47.4432 23.1856 46.6393 24.6224C45.8313 26.066 45.4214 27.7683 45.4214 29.6826C45.4214 31.5968 45.8313 33.2994 46.6393 34.7427C47.4435 36.1805 48.5668 37.3024 49.9782 38.0765C51.3964 38.8554 53.007 39.2501 54.7664 39.2501C57.2845 39.2501 59.2276 38.4522 60.5411 36.8783L61.2879 35.9833V38.9619H65.8538V20.4036H61.0336ZM55.2187 35.8778C51.8785 35.8778 49.1708 33.1891 49.1708 29.8724C49.1708 26.5557 51.8785 23.867 55.2187 23.867C58.5588 23.867 61.2666 26.5557 61.2666 29.8724C61.2662 33.1891 58.5588 35.8778 55.2187 35.8778Z" fill="#25303C"/>
</g>
<g clip-path="url(#clip1_24_17237)">
<path d="M23.3213 9.61581C23.3684 9.62023 23.441 9.62941 23.4541 9.63553V9.63689C23.4339 9.64131 23.2392 9.62227 23.209 9.61309L23.2073 9.61241L23.208 9.61105C23.2207 9.60833 23.2742 9.61139 23.3213 9.61581Z" fill="#4E9C1F"/>
<path d="M22.6434 9.41285C22.7416 9.41761 22.8479 9.42917 22.8664 9.43733C22.8516 9.44821 22.5318 9.42713 22.4904 9.41863C22.4887 9.41795 22.486 9.41727 22.4844 9.41625C22.4938 9.40571 22.6421 9.41285 22.6434 9.41285Z" fill="#4E9C1F"/>
<path d="M21.843 9.25677C21.9516 9.25677 22.0885 9.26765 22.1154 9.27649L22.1164 9.27853C22.0955 9.28567 21.7815 9.28498 21.7108 9.27547C21.7061 9.27445 21.7014 9.27377 21.6974 9.27139C21.6977 9.27037 21.6984 9.26866 21.6984 9.26866C21.724 9.25745 21.8235 9.25677 21.843 9.25677Z" fill="#4E9C1F"/>
<path d="M20.9496 9.15034C21.0505 9.14252 21.2277 9.15442 21.2442 9.16224C21.2374 9.17074 20.9721 9.18774 20.8924 9.18162C20.8803 9.18026 20.8524 9.17686 20.8639 9.16768C20.8709 9.1619 20.8972 9.15408 20.9496 9.15034Z" fill="#4E9C1F"/>
<path d="M19.9997 9.09669C20.0464 9.08173 20.2757 9.08955 20.2919 9.09839L20.2912 9.10111C20.2778 9.10893 20.1574 9.13681 20.0635 9.13511C19.9882 9.13103 19.9805 9.11097 19.9862 9.10417C19.9899 9.09975 19.9946 9.09805 19.9997 9.09669Z" fill="#4E9C1F"/>
<path d="M19.0183 9.09837C19.0146 9.09701 19.011 9.09565 19.0086 9.09225C19.0231 9.07899 19.2544 9.08103 19.2568 9.08137C19.2867 9.08205 19.3492 9.0834 19.3499 9.10006C19.3499 9.10006 19.3432 9.13135 19.242 9.13576C19.1293 9.13576 19.0194 9.09871 19.0183 9.09837Z" fill="#4E9C1F"/>
<path d="M18.0415 9.15858C18.0133 9.1562 17.9844 9.1579 17.9571 9.14872C17.9649 9.13886 18.2218 9.12322 18.3284 9.12594C18.4588 9.12934 18.4948 9.15178 18.4955 9.163C18.4965 9.17592 18.4622 9.17966 18.4457 9.18136C18.3764 9.18544 18.3018 9.18068 18.0415 9.15858Z" fill="#4E9C1F"/>
<path d="M17.1047 9.27859C16.9409 9.27825 16.9198 9.27825 16.8982 9.27485C16.9329 9.23371 17.6293 9.19665 17.7238 9.25853C17.7241 9.26057 17.7244 9.26329 17.7248 9.26533C17.7164 9.27043 17.707 9.27179 17.6979 9.27349C17.6481 9.27995 17.6481 9.27995 17.1047 9.27859Z" fill="#4E9C1F"/>
<path d="M16.2983 9.44751C16.0038 9.46212 15.9661 9.46416 15.9395 9.45906C16.0455 9.38699 16.9695 9.33395 17.0761 9.39413C17.0734 9.39855 17.0667 9.40263 17.062 9.40399C17.024 9.41113 17.024 9.41113 16.2983 9.44751Z" fill="#4E9C1F"/>
<path d="M15.6538 9.65387C15.3078 9.68651 15.1911 9.69738 15.1514 9.6899C15.1521 9.68786 15.1531 9.68515 15.1538 9.68311C15.3683 9.59165 16.4309 9.49442 16.5577 9.55459C16.5557 9.55663 16.5526 9.55969 16.5506 9.56207C16.5082 9.57363 16.5082 9.57363 15.6538 9.65387Z" fill="#4E9C1F"/>
<path d="M15.1769 9.89018C14.7549 9.94797 14.579 9.97041 14.5377 9.95851C14.5999 9.8623 15.9328 9.67939 16.1766 9.73345C16.177 9.73583 16.1773 9.73889 16.1776 9.74127C16.1319 9.75929 16.1319 9.75929 15.1769 9.89018Z" fill="#4E9C1F"/>
<path d="M14.8773 10.1479C14.3577 10.2427 14.1883 10.2675 14.123 10.2594C14.1217 10.2563 14.12 10.2519 14.1187 10.2485C14.3157 10.1057 15.7892 9.87554 15.9479 9.93028C15.9479 9.93164 15.9479 9.93334 15.9479 9.9347C15.9082 9.95816 15.798 9.97992 14.8773 10.1479Z" fill="#4E9C1F"/>
<path d="M14.7688 10.4171C14.2153 10.5463 13.988 10.5878 13.9305 10.5708C13.9439 10.5086 14.3764 10.3804 14.797 10.2856C15.2268 10.1887 15.8119 10.1074 15.8405 10.1404C15.8018 10.1649 15.7739 10.1826 14.7688 10.4171Z" fill="#4E9C1F"/>
<path d="M14.8568 10.6908C14.1261 10.9057 13.995 10.9111 13.9627 10.8884C13.9778 10.7041 15.7745 10.2903 15.8834 10.3495C15.8649 10.3699 15.833 10.4039 14.8568 10.6908Z" fill="#4E9C1F"/>
<path d="M15.1511 10.961C14.754 11.1089 14.2724 11.2704 14.2328 11.2017C14.2906 10.9937 15.908 10.498 16.0839 10.5561C16.0698 10.5997 15.756 10.736 15.1511 10.961Z" fill="#4E9C1F"/>
<path d="M15.6464 11.212C14.9235 11.5588 14.7197 11.5601 14.759 11.4765C14.8653 11.2504 16.2188 10.7109 16.4333 10.7547C16.4353 10.7568 16.4377 10.7592 16.4397 10.7612C16.4215 10.8394 15.678 11.197 15.6464 11.212Z" fill="#4E9C1F"/>
<path d="M16.293 11.4211C15.7695 11.7522 15.4652 11.8403 15.4732 11.7339C15.4897 11.5204 16.6707 10.9036 16.898 10.9298C16.9851 10.9818 16.2998 11.4167 16.293 11.4211Z" fill="#4E9C1F"/>
<path d="M17.0607 11.5853C16.6152 11.9769 16.334 12.0443 16.3361 11.9181C16.3401 11.6863 17.2332 11.06 17.4659 11.0716C17.5836 11.1188 17.0661 11.5809 17.0607 11.5853Z" fill="#4E9C1F"/>
<path d="M17.9202 11.7029C17.6209 12.1133 17.3253 12.2064 17.3055 12.0453C17.2739 11.7906 17.8926 11.1804 18.1169 11.1783C18.245 11.2147 17.9945 11.6016 17.9202 11.7029Z" fill="#4E9C1F"/>
<path d="M18.8396 11.7699C18.7007 12.1738 18.4394 12.2894 18.3604 12.1303C18.2444 11.8971 18.6177 11.2719 18.8231 11.2589C18.9502 11.2838 18.8964 11.604 18.8396 11.7699Z" fill="#4E9C1F"/>
<path d="M19.7918 11.7842C19.8039 12.1272 19.6226 12.2969 19.4784 12.1731C19.2807 12.0035 19.3563 11.3249 19.5762 11.2984C19.7043 11.3147 19.785 11.5958 19.7918 11.7842Z" fill="#4E9C1F"/>
<path d="M20.7498 11.7444C20.8769 12.046 20.7804 12.219 20.6149 12.1439C20.3375 12.0177 20.1781 11.3517 20.3389 11.298C20.3436 11.2963 20.3503 11.296 20.355 11.295C20.4909 11.3031 20.6748 11.5659 20.7498 11.7444Z" fill="#4E9C1F"/>
<path d="M21.68 11.6471C21.8777 11.8861 21.8757 12.0442 21.7503 12.0364C21.4796 12.0194 21.0209 11.366 21.1208 11.265C21.1265 11.2592 21.1376 11.2562 21.1457 11.2538C21.2745 11.2534 21.5438 11.4826 21.68 11.6471Z" fill="#4E9C1F"/>
<path d="M22.5179 11.4986C22.7617 11.692 22.8276 11.8297 22.7486 11.8467C22.5435 11.8906 21.84 11.2725 21.8841 11.1773C21.8868 11.1719 21.8952 11.1681 21.9006 11.1657C22.0055 11.1589 22.3132 11.3361 22.5179 11.4986Z" fill="#4E9C1F"/>
<path d="M23.2069 11.3109C23.4827 11.4714 23.5909 11.5914 23.5334 11.6108C23.4093 11.6519 22.49 11.1226 22.5495 11.044C22.5512 11.042 22.5546 11.041 22.5566 11.0396C22.642 11.0288 22.9762 11.1766 23.2069 11.3109Z" fill="#4E9C1F"/>
<path d="M23.7366 11.0927C24.0147 11.2181 24.1468 11.3167 24.1101 11.3361C24.0345 11.3759 23.1279 10.973 23.1101 10.8918C23.1111 10.8904 23.1128 10.889 23.1138 10.8877C23.1784 10.8737 23.5015 10.9863 23.7366 11.0927Z" fill="#4E9C1F"/>
<path d="M24.1015 10.8512C24.2793 10.9152 24.4666 10.9967 24.4841 11.0345C24.4626 11.0814 23.5913 10.7798 23.5422 10.7084C23.5426 10.7074 23.5433 10.7057 23.5436 10.7047C23.587 10.6901 23.8792 10.7713 24.1015 10.8512Z" fill="#4E9C1F"/>
<path d="M24.292 10.5956C24.4383 10.6377 24.5983 10.6928 24.6252 10.7207C24.6242 10.7224 24.6232 10.7248 24.6222 10.7265C24.5445 10.7377 23.8572 10.5395 23.8481 10.5034C23.8969 10.4909 24.1733 10.5616 24.292 10.5956Z" fill="#4E9C1F"/>
<path d="M24.3039 10.3328C24.4192 10.3594 24.5484 10.3957 24.5601 10.411C24.5225 10.4321 24.013 10.3026 23.9979 10.2842C24.0204 10.2733 24.2138 10.3121 24.3039 10.3328Z" fill="#4E9C1F"/>
<path d="M24.1295 10.0711C24.1907 10.0819 24.2624 10.0979 24.2735 10.1054L24.2725 10.1071C24.2419 10.1108 23.995 10.0663 23.9759 10.0537L23.9769 10.0524C23.9947 10.05 24.0673 10.0598 24.1295 10.0711Z" fill="#4E9C1F"/>
<path d="M25.9314 10.1615C25.9805 10.1782 26.0309 10.1921 26.0786 10.2132C26.0723 10.2118 25.8796 10.1469 25.8473 10.135C25.8456 10.1343 25.8436 10.1336 25.8419 10.1329C25.8732 10.1374 25.9014 10.1516 25.9314 10.1615Z" fill="#4E9C1F"/>
<path d="M14.9258 9.6393C14.9066 9.63522 14.8898 9.64507 14.872 9.64915C14.6141 9.71171 14.4012 9.77427 14.3313 9.795L14.9258 9.6393Z" fill="#4E9C1F"/>
<path d="M12.9623 10.2346C12.7619 10.3022 12.6018 10.3614 12.5679 10.3763L13.1318 10.1703C13.7498 9.94865 13.9149 9.92485 13.9163 9.92485C13.9089 9.93029 13.8974 9.93573 13.8887 9.93913C13.5824 10.0455 13.2693 10.1309 12.9623 10.2346Z" fill="#4E9C1F"/>
<path d="M12.1603 10.633C11.7682 10.7707 11.6643 10.8067 11.6287 10.8091C11.6875 10.717 12.9818 10.2519 13.1674 10.2563C13.1644 10.2607 13.1607 10.2668 13.1577 10.2713C13.084 10.309 13.084 10.309 12.1603 10.633Z" fill="#4E9C1F"/>
<path d="M11.6582 11.0679C11.1034 11.2786 11.025 11.2895 10.9947 11.2831C11.0368 11.1464 12.479 10.5837 12.6905 10.6215C12.6905 10.6255 12.6902 10.6306 12.6899 10.6347C12.6643 10.6558 12.596 10.7116 11.6582 11.0679Z" fill="#4E9C1F"/>
<path d="M11.4764 11.521C10.7847 11.8141 10.7279 11.7828 10.7094 11.7726C10.6822 11.6213 12.2808 10.9352 12.4728 11.0158C12.4734 11.0182 12.4744 11.0216 12.4751 11.024C12.423 11.1148 11.6973 11.4275 11.4764 11.521Z" fill="#4E9C1F"/>
<path d="M11.6253 11.982C11.0947 12.2394 10.7585 12.3468 10.7685 12.2557C10.7931 12.0381 12.387 11.2902 12.545 11.4224C12.5507 11.5319 11.663 11.9636 11.6253 11.982Z" fill="#4E9C1F"/>
<path d="M12.1223 12.4373C11.5524 12.763 11.1388 12.8888 11.2003 12.7174C11.3062 12.4223 12.6681 11.7067 12.9146 11.8168C12.9963 11.9331 12.1311 12.4325 12.1223 12.4373Z" fill="#4E9C1F"/>
<path d="M12.9562 12.8602C12.3691 13.2709 11.9625 13.3627 12.0045 13.1675C12.0738 12.8466 13.2639 12.1119 13.5766 12.1972C13.7097 12.2917 13.1737 12.7079 12.9562 12.8602Z" fill="#4E9C1F"/>
<path d="M14.0444 13.2117C13.5333 13.6649 13.0864 13.7811 13.113 13.5404C13.1503 13.2001 14.1281 12.4722 14.4715 12.529C14.6561 12.6133 14.2139 13.0614 14.0444 13.2117Z" fill="#4E9C1F"/>
<path d="M15.3366 13.4891C14.92 13.9872 14.4509 14.1174 14.4472 13.8304C14.4425 13.4701 15.2021 12.765 15.5606 12.7969C15.7728 12.8642 15.5014 13.2923 15.3366 13.4891Z" fill="#4E9C1F"/>
<path d="M16.7839 13.6877C16.5028 14.1946 16.0471 14.3527 15.962 14.0732C15.8548 13.7207 16.4281 12.9863 16.8024 12.9972C17.0475 13.0516 16.8958 13.4857 16.7839 13.6877Z" fill="#4E9C1F"/>
<path d="M18.3321 13.8006C18.1943 14.2962 17.7773 14.4761 17.6196 14.2146C17.4252 13.892 17.7921 13.1471 18.1502 13.1373C18.393 13.1736 18.4028 13.5469 18.3321 13.8006Z" fill="#4E9C1F"/>
<path d="M19.9372 13.826C19.9355 14.3081 19.5774 14.5009 19.3537 14.2578C19.0807 13.961 19.233 13.2328 19.574 13.2046C19.8232 13.226 19.9378 13.5881 19.9372 13.826Z" fill="#4E9C1F"/>
<path d="M21.5529 13.7594C21.6659 14.1687 21.4409 14.3843 21.184 14.2527C20.7738 14.0426 20.7106 13.261 21.0008 13.1923C21.0098 13.1903 21.0226 13.1893 21.032 13.1879C21.2815 13.1944 21.4904 13.533 21.5529 13.7594Z" fill="#4E9C1F"/>
<path d="M23.1229 13.5966C23.319 13.945 23.1932 14.1592 22.9524 14.0899C22.5429 13.9719 22.2207 13.2358 22.4353 13.1111C22.4494 13.1029 22.4712 13.0978 22.487 13.0944C22.713 13.0866 23.0015 13.381 23.1229 13.5966Z" fill="#4E9C1F"/>
<path d="M24.5396 13.3471C24.7682 13.6133 24.7854 13.8336 24.5759 13.8098C24.205 13.7676 23.6687 13.0676 23.8186 12.9357C23.828 12.9272 23.8449 12.9217 23.857 12.9177C24.0459 12.8993 24.3748 13.155 24.5396 13.3471Z" fill="#4E9C1F"/>
<path d="M25.7064 13.0312C25.9509 13.2437 26.0407 13.4337 25.9021 13.446C25.6153 13.4718 24.9202 12.8167 24.9993 12.6936C25.0043 12.6858 25.0164 12.6797 25.0248 12.6756C25.1731 12.6501 25.5161 12.8656 25.7064 13.0312Z" fill="#4E9C1F"/>
<path d="M26.6066 12.6633C26.8544 12.8353 26.9795 12.9951 26.8796 13.0121C26.6967 13.0434 25.8893 12.4933 25.9701 12.3924C25.9724 12.3896 25.9764 12.3876 25.9795 12.3856C26.0851 12.356 26.4116 12.5277 26.6066 12.6633Z" fill="#4E9C1F"/>
<path d="M27.23 12.2557C27.4627 12.39 27.605 12.5195 27.5401 12.5386C27.4173 12.5743 26.656 12.1439 26.6826 12.0538C26.6833 12.0514 26.6856 12.0493 26.687 12.0473C26.7482 12.0198 27.0172 12.133 27.23 12.2557Z" fill="#4E9C1F"/>
<path d="M27.5605 11.824C27.7531 11.9191 27.8883 12.014 27.856 12.0313C27.7911 12.066 27.1384 11.7458 27.1435 11.6815C27.1714 11.6577 27.3816 11.7359 27.5605 11.824Z" fill="#4E9C1F"/>
<path d="M27.5891 11.3789C27.692 11.4231 27.8349 11.4949 27.8305 11.5156C27.7922 11.535 27.3345 11.3392 27.31 11.2929C27.31 11.2929 27.3103 11.2912 27.3106 11.2902C27.3328 11.28 27.4697 11.3273 27.5891 11.3789Z" fill="#4E9C1F"/>
<path d="M27.3039 10.9342C27.3544 10.9536 27.4371 10.9886 27.4452 11.0005C27.4307 11.011 27.1919 10.9141 27.1698 10.8954L27.1687 10.8941C27.1812 10.8873 27.3026 10.9338 27.3039 10.9342Z" fill="#4E9C1F"/>
<path d="M9.41337 11.9362C9.32695 11.9882 9.24121 12.0412 9.15613 12.0949C9.51324 11.8831 9.98637 11.5952 10.3505 11.3963C10.3717 11.3847 10.3929 11.3728 10.4144 11.3619C10.406 11.3674 10.3946 11.3745 10.3859 11.3793C9.60875 11.8185 9.60874 11.8185 9.41337 11.9362Z" fill="#4E9C1F"/>
<path d="M8.72775 12.5317C8.24454 12.8268 8.20183 12.836 8.17628 12.8414C8.17561 12.8384 8.17493 12.8343 8.17459 12.8313C8.32659 12.649 9.48132 11.9082 9.70325 11.878C9.70493 11.8807 9.70695 11.8844 9.70863 11.8871C9.70594 11.8905 9.70224 11.8953 9.69955 11.8987C9.66929 11.9269 9.57783 12.0129 8.72775 12.5317Z" fill="#4E9C1F"/>
<path d="M8.47848 13.1525C8.19837 13.3327 7.8537 13.5377 7.80158 13.4895C7.79452 13.2967 9.24348 12.3403 9.3837 12.445C9.38404 12.4484 9.38437 12.4535 9.38471 12.4569C9.31914 12.6103 8.51278 13.1304 8.47848 13.1525Z" fill="#4E9C1F"/>
<path d="M8.68342 13.7843C8.19617 14.127 7.84747 14.268 7.88916 14.1052C7.97155 13.7849 9.32434 12.8691 9.48003 13.0285C9.50727 13.1696 8.91409 13.6218 8.68342 13.7843Z" fill="#4E9C1F"/>
<path d="M9.36429 14.4078C8.86224 14.8079 8.43418 14.9657 8.44797 14.745C8.47084 14.3765 9.72174 13.4528 10.0042 13.5959C10.1158 13.7265 9.67096 14.163 9.36429 14.4078Z" fill="#4E9C1F"/>
<path d="M10.5068 14.986C9.95704 15.5052 9.47584 15.6051 9.50409 15.3036C9.54511 14.8671 10.5892 14.0311 10.9551 14.1419C11.1494 14.2653 10.7832 14.7253 10.5068 14.986Z" fill="#4E9C1F"/>
<path d="M11.9966 15.4682C11.5029 16.0444 10.9646 16.1563 10.9579 15.8006C10.9495 15.3468 11.8274 14.5393 12.2451 14.6172C12.503 14.7246 12.2296 15.1962 11.9966 15.4682Z" fill="#4E9C1F"/>
<path d="M13.7663 15.8486C13.3836 16.436 12.8197 16.5822 12.7262 16.2382C12.6058 15.7955 13.3469 14.951 13.8123 15.0003C14.1059 15.086 13.9623 15.548 13.7663 15.8486Z" fill="#4E9C1F"/>
<path d="M15.7489 16.1205C15.4722 16.743 14.8679 16.9042 14.7264 16.5156C14.5599 16.0586 15.1208 15.2658 15.5963 15.2859C15.9272 15.3532 15.8848 15.8146 15.7489 16.1205Z" fill="#4E9C1F"/>
<path d="M17.8691 16.2752C17.7332 16.8471 17.1703 17.1065 16.9279 16.7087C16.6871 16.3136 17.02 15.4895 17.5325 15.4824C17.8836 15.5296 17.9407 15.9743 17.8691 16.2752Z" fill="#4E9C1F"/>
<path d="M20.0682 16.3109C20.0524 16.8661 19.555 17.1445 19.2366 16.7763C18.9212 16.4115 19.0742 15.6055 19.5702 15.5711C19.9273 15.5973 20.0762 16.0195 20.0682 16.3109Z" fill="#4E9C1F"/>
<path d="M22.2825 16.2202C22.3743 16.7217 21.9994 17.0219 21.6248 16.7468C21.2062 16.4395 21.193 15.6341 21.6053 15.5498C21.6187 15.547 21.6369 15.5457 21.6504 15.544C21.9981 15.5491 22.2331 15.9506 22.2825 16.2202Z" fill="#4E9C1F"/>
<path d="M24.4349 15.9978C24.6078 16.432 24.3647 16.7315 23.9867 16.5506C23.5206 16.3272 23.2994 15.5188 23.6753 15.412C23.6871 15.4086 23.7036 15.4066 23.7157 15.4039C24.0388 15.3882 24.3361 15.7489 24.4349 15.9978Z" fill="#4E9C1F"/>
<path d="M26.3786 15.6561C26.5888 15.9971 26.5124 16.2725 26.2246 16.2123C25.7464 16.1123 25.3439 15.3331 25.5894 15.1693C25.6052 15.1587 25.6301 15.1509 25.6483 15.1458C25.9129 15.1152 26.2407 15.4324 26.3786 15.6561Z" fill="#4E9C1F"/>
<path d="M27.9809 15.2237C28.2098 15.5014 28.2314 15.7462 28.0266 15.737C27.6819 15.7214 27.0639 14.9999 27.2394 14.8177C27.2495 14.8075 27.2673 14.7994 27.2804 14.7936C27.4839 14.7541 27.8188 15.0271 27.9809 15.2237Z" fill="#4E9C1F"/>
<path d="M29.218 14.7191C29.4527 14.95 29.528 15.1604 29.3753 15.1611C29.1047 15.1621 28.4446 14.5175 28.5818 14.386C28.5855 14.3822 28.5919 14.3792 28.5959 14.3765C28.7378 14.3329 29.0509 14.5553 29.218 14.7191Z" fill="#4E9C1F"/>
<path d="M30.0772 14.1613C30.2991 14.3462 30.4074 14.5213 30.3041 14.5288C30.1596 14.5393 29.4558 14.0195 29.556 13.8961C29.6383 13.8543 29.9114 14.0232 30.0772 14.1613Z" fill="#4E9C1F"/>
<path d="M30.5347 13.5687C30.72 13.7043 30.8367 13.8369 30.7798 13.8468C30.6988 13.8611 30.1295 13.4827 30.1504 13.382C30.1833 13.3477 30.3757 13.4521 30.5347 13.5687Z" fill="#4E9C1F"/>
<path d="M30.5795 12.9574C30.6643 13.0139 30.7984 13.1138 30.7971 13.143C30.7668 13.1702 30.3586 12.9023 30.3324 12.8377C30.3324 12.8367 30.3327 12.835 30.3327 12.834C30.3509 12.8201 30.4736 12.887 30.5795 12.9574Z" fill="#4E9C1F"/>
<path d="M30.1935 12.3465C30.248 12.3801 30.3257 12.4325 30.3297 12.4423C30.3122 12.444 30.1101 12.3155 30.0812 12.2883C30.0805 12.2873 30.0795 12.2863 30.0792 12.2849C30.092 12.2842 30.1764 12.3363 30.1935 12.3465Z" fill="#4E9C1F"/>
<path d="M6.14553 14.4853C5.75681 14.8368 5.7252 14.8653 5.70368 14.8789C5.7131 14.8657 5.72016 14.8558 5.84222 14.7348L6.31367 14.2833L6.61428 14.0103C6.96837 13.6969 7.03999 13.6533 7.05378 13.6476C7.04974 13.6561 7.04167 13.6659 7.03562 13.6731C6.9724 13.7376 6.97241 13.7377 6.14553 14.4853Z" fill="#4E9C1F"/>
<path d="M5.83819 15.2536C5.6593 15.4182 5.34792 15.6922 5.2689 15.6772C5.2272 15.6133 5.53825 15.2465 5.85064 14.9429C6.23297 14.5713 6.57562 14.3279 6.62606 14.3585C6.63245 14.3622 6.63245 14.3748 6.63245 14.3823C6.56116 14.5859 5.84526 15.2468 5.83819 15.2536Z" fill="#4E9C1F"/>
<path d="M6.09142 16.0355C5.67277 16.4442 5.34828 16.6149 5.36811 16.416C5.40712 16.025 6.5817 14.9126 6.74915 15.1077C6.79421 15.2723 6.36951 15.7639 6.09142 16.0355Z" fill="#4E9C1F"/>
<path d="M6.93438 16.807C6.50093 17.2728 6.07657 17.457 6.04361 17.1935C5.98813 16.7499 7.08738 15.6524 7.4112 15.8285C7.56117 15.9887 7.22289 16.4973 6.93438 16.807Z" fill="#4E9C1F"/>
<path d="M8.34879 17.5229C7.90156 18.0781 7.35883 18.262 7.31142 17.8745C7.24618 17.3397 8.17663 16.3782 8.62184 16.5207C8.87034 16.6699 8.61175 17.1966 8.34879 17.5229Z" fill="#4E9C1F"/>
<path d="M10.1922 18.1196C9.79644 18.7139 9.16594 18.9176 9.06843 18.4827C8.95948 17.9976 9.72347 17.0168 10.2632 17.1228C10.5863 17.252 10.4162 17.7834 10.1922 18.1196Z" fill="#4E9C1F"/>
<path d="M12.3826 18.5905C12.048 19.2361 11.3526 19.454 11.201 18.9607C11.0477 18.4616 11.6731 17.542 12.2555 17.609C12.6389 17.7157 12.5605 18.2471 12.3826 18.5905Z" fill="#4E9C1F"/>
<path d="M14.836 18.9267C14.5973 19.5822 13.9005 19.8368 13.6527 19.3591C13.4035 18.8791 13.8978 17.9411 14.5209 17.9727C14.948 18.0553 14.9625 18.5803 14.836 18.9267Z" fill="#4E9C1F"/>
<path d="M17.4601 19.1191C17.3216 19.7882 16.5963 20.0544 16.3017 19.5441C16.0266 19.0675 16.374 18.2226 16.981 18.2189C17.4285 18.2756 17.5307 18.7795 17.4601 19.1191Z" fill="#4E9C1F"/>
<path d="M20.1822 19.163C20.1526 19.7882 19.5497 20.0949 19.1579 19.6835C18.7668 19.2728 18.9525 18.3658 19.5655 18.3277C20.0171 18.3576 20.198 18.8343 20.1822 19.163Z" fill="#4E9C1F"/>
<path d="M22.9238 19.0514C22.9914 19.6379 22.4527 19.9694 22.023 19.6059C21.5842 19.2347 21.6181 18.3576 22.1985 18.2875C22.6383 18.2906 22.8875 18.7363 22.9238 19.0514Z" fill="#4E9C1F"/>
<path d="M25.5893 18.7761C25.7319 19.2884 25.3425 19.6311 24.9064 19.3775C24.3878 19.0763 24.2876 18.24 24.755 18.1172C24.7702 18.1131 24.791 18.1104 24.8065 18.1074C25.2117 18.0853 25.5083 18.4851 25.5893 18.7761Z" fill="#4E9C1F"/>
<path d="M27.997 18.3535C28.195 18.7989 27.9802 19.1229 27.5941 18.9621C27.0938 18.7537 26.8153 17.9306 27.197 17.7878C27.2088 17.7834 27.2252 17.7797 27.2377 17.7763C27.5662 17.7358 27.8796 18.0897 27.997 18.3535Z" fill="#4E9C1F"/>
<path d="M29.9823 17.8187C30.2019 18.1862 30.1216 18.4861 29.8253 18.4021C29.3898 18.2787 28.9672 17.4944 29.253 17.34C29.2614 17.3356 29.2738 17.3315 29.2826 17.3278C29.5324 17.2765 29.8421 17.5838 29.9823 17.8187Z" fill="#4E9C1F"/>
<path d="M31.5173 17.1945C31.7298 17.4828 31.7453 17.7398 31.5486 17.7136C31.2285 17.6708 30.7183 16.9613 30.8989 16.81C30.904 16.8056 30.912 16.8015 30.9177 16.7981C31.0866 16.7427 31.3754 17.0021 31.5173 17.1945Z" fill="#4E9C1F"/>
<path d="M32.5844 16.5037C32.7868 16.7389 32.8534 16.9565 32.7189 16.9429C32.5191 16.9229 31.9737 16.3313 32.0995 16.1906C32.1993 16.1362 32.4478 16.3453 32.5844 16.5037Z" fill="#4E9C1F"/>
<path d="M33.1545 15.7694C33.3264 15.9472 33.4162 16.1107 33.3395 16.1063C33.2258 16.0995 32.7769 15.6579 32.8089 15.5416C32.8492 15.4947 33.0392 15.6501 33.1545 15.7694Z" fill="#4E9C1F"/>
<path d="M33.2134 15.0118C33.3375 15.1302 33.4297 15.2461 33.3997 15.2454C33.3564 15.2447 33.0309 14.9425 33.004 14.8623C33.0029 14.8303 33.1119 14.9149 33.2134 15.0118Z" fill="#4E9C1F"/>
<path d="M32.7386 14.2544C32.7857 14.2973 32.8563 14.3632 32.8667 14.3758C32.855 14.3697 32.6781 14.2072 32.6505 14.1789C32.6495 14.1779 32.6478 14.1762 32.6468 14.1749C32.6573 14.18 32.6646 14.1885 32.6731 14.1959C32.6952 14.215 32.7171 14.2347 32.7386 14.2544Z" fill="#4E9C1F"/>
<path d="M4.11816 16.6809L4.521 16.178C4.28898 16.4582 4.11143 16.689 4.04485 16.7757L4.11816 16.6809Z" fill="#4E9C1F"/>
<path d="M3.61321 17.767C3.46761 17.9581 3.21507 18.2763 3.15757 18.26C3.10444 18.106 4.13812 16.6761 4.27498 16.7145C4.278 16.7223 4.278 16.7342 4.27733 16.7424C4.21647 16.9474 3.7773 17.5515 3.61321 17.767Z" fill="#4E9C1F"/>
<path d="M3.90801 18.6751C3.58924 19.1072 3.31216 19.3129 3.27718 19.1429C3.20253 18.7795 4.18711 17.4084 4.39795 17.5824C4.40333 17.5868 4.4077 17.595 4.41208 17.6004C4.4763 17.7983 4.13701 18.3647 3.90801 18.6751Z" fill="#4E9C1F"/>
<path d="M4.8876 19.5716C4.53284 20.0884 4.12395 20.2965 4.04661 19.9997C3.92757 19.5444 4.76722 18.2104 5.19192 18.4521C5.3809 18.6435 5.12769 19.2221 4.8876 19.5716Z" fill="#4E9C1F"/>
<path d="M6.5305 20.4035C6.16263 21.0077 5.60612 21.2099 5.48607 20.7833C5.33139 20.2339 6.07958 19.0902 6.62231 19.2704C6.9273 19.4472 6.7521 20.0394 6.5305 20.4035Z" fill="#4E9C1F"/>
<path d="M8.67184 21.0967C8.33692 21.7475 7.67616 21.965 7.49357 21.4847C7.28172 20.9268 7.93407 19.8535 8.5649 19.9826C8.95632 20.1336 8.86284 20.7248 8.67184 21.0967Z" fill="#4E9C1F"/>
<path d="M11.2161 21.6431C10.9292 22.342 10.1757 22.5736 9.93657 22.0361C9.69043 21.4836 10.2574 20.4756 10.9218 20.5558C11.3818 20.6799 11.3707 21.2664 11.2161 21.6431Z" fill="#4E9C1F"/>
<path d="M14.0662 22.034C13.8436 22.7796 13.0131 23.0247 12.7198 22.4311C12.4441 21.8736 12.9085 20.9434 13.6012 20.9818C14.1103 21.0774 14.1796 21.6546 14.0662 22.034Z" fill="#4E9C1F"/>
<path d="M17.1149 22.2581C16.982 22.989 16.1713 23.2705 15.8004 22.7143C15.4534 22.1935 15.8055 21.2745 16.5089 21.2735C17.0385 21.3374 17.1821 21.8878 17.1149 22.2581Z" fill="#4E9C1F"/>
<path d="M20.277 22.3094C20.233 23.0169 19.47 23.3304 19.0402 22.8177C18.6377 22.3377 18.8721 21.4384 19.5608 21.3993C20.0917 21.4316 20.2992 21.9508 20.277 22.3094Z" fill="#4E9C1F"/>
<path d="M23.4625 22.1796C23.5012 22.8197 22.8703 23.175 22.3915 22.7827C21.8881 22.3706 21.9698 21.4299 22.6656 21.3494C23.1807 21.3507 23.4417 21.8355 23.4625 22.1796Z" fill="#4E9C1F"/>
<path d="M26.5602 21.8604C26.6691 22.456 26.1362 22.8232 25.6546 22.4842C25.1492 22.1283 25.1133 21.2474 25.7353 21.1331C26.2075 21.1046 26.502 21.5411 26.5602 21.8604Z" fill="#4E9C1F"/>
<path d="M29.3589 21.3694C29.5163 21.879 29.179 22.2425 28.7574 22.0178C28.2489 21.7465 28.1064 20.9067 28.5428 20.7524C28.5569 20.7473 28.5768 20.7432 28.5912 20.7391C28.9716 20.6902 29.2692 21.0784 29.3589 21.3694Z" fill="#4E9C1F"/>
<path d="M31.6672 20.7483C31.8495 21.1794 31.676 21.517 31.3417 21.382C30.8965 21.2025 30.6231 20.39 30.9513 20.2227C30.9614 20.2176 30.9762 20.2129 30.987 20.2084C31.2731 20.1472 31.557 20.4872 31.6672 20.7483Z" fill="#4E9C1F"/>
<path d="M33.4532 20.0231C33.6321 20.3651 33.5803 20.6609 33.352 20.5987C33.0332 20.5116 32.6213 19.7467 32.891 19.5818C33.085 19.5162 33.3365 19.8004 33.4532 20.0231Z" fill="#4E9C1F"/>
<path d="M34.695 19.2198C34.8679 19.5033 34.886 19.7573 34.7303 19.7134C34.5121 19.6522 34.1157 19.0182 34.2592 18.8669C34.3719 18.8023 34.5817 19.0345 34.695 19.2198Z" fill="#4E9C1F"/>
<path d="M35.3611 18.3668C35.5003 18.5711 35.5655 18.7595 35.4949 18.7547C35.3893 18.7476 35.0211 18.2393 35.0648 18.1043C35.1082 18.0493 35.2642 18.2247 35.3611 18.3668Z" fill="#4E9C1F"/>
<path d="M35.4322 17.4859C35.5021 17.5811 35.6013 17.7334 35.5926 17.7575C35.56 17.767 35.2903 17.3988 35.2651 17.3098C35.2647 17.3074 35.2647 17.3036 35.2657 17.3013C35.2859 17.2951 35.3834 17.4192 35.4322 17.4859Z" fill="#4E9C1F"/>
<path d="M1.8649 20.6333C1.74553 20.869 1.59253 21.1566 1.54209 21.1892C1.48425 21.0566 2.29163 19.4955 2.37569 19.4451C2.38006 19.4543 2.38107 19.4689 2.37939 19.4788C2.31953 19.7113 1.98764 20.3909 1.8649 20.6333Z" fill="#4E9C1F"/>
<path d="M2.19214 21.6407C1.95003 22.1201 1.7217 22.3475 1.67261 22.1588C1.57005 21.7668 2.24661 20.3301 2.49511 20.4117C2.50822 20.4161 2.52033 20.4318 2.52873 20.443C2.60574 20.6572 2.37843 21.2722 2.19214 21.6407Z" fill="#4E9C1F"/>
<path d="M3.27919 22.6348C3.00547 23.2005 2.63255 23.4266 2.51217 23.1002C2.30738 22.5457 2.97184 21.212 3.36863 21.381C3.37939 21.3857 3.39251 21.3949 3.40259 21.401C3.62453 21.6176 3.46413 22.253 3.27919 22.6348Z" fill="#4E9C1F"/>
<path d="M5.10187 23.5575C4.80831 24.2228 4.27398 24.4346 4.08063 23.9621C3.83583 23.3634 4.42396 22.1238 5.00906 22.3237C5.36079 22.5223 5.27504 23.1645 5.10187 23.5575Z" fill="#4E9C1F"/>
<path d="M7.47646 24.3265C7.1903 25.0735 6.47877 25.2696 6.24842 24.6652C6.00631 24.0301 6.54064 22.9864 7.19467 23.1237C7.64224 23.2927 7.62879 23.9288 7.47646 24.3265Z" fill="#4E9C1F"/>
<path d="M10.2988 24.933C10.0614 25.6871 9.28492 25.9254 8.95875 25.3444C8.61677 24.7355 9.0983 23.6744 9.84581 23.7679C10.3677 23.906 10.4249 24.5322 10.2988 24.933Z" fill="#4E9C1F"/>
<path d="M13.46 25.3672C13.269 26.1665 12.3924 26.419 12.0171 25.7826C11.6664 25.1877 12.0945 24.2014 12.8584 24.2463C13.4331 24.3513 13.5562 24.965 13.46 25.3672Z" fill="#4E9C1F"/>
<path d="M16.8418 25.615C16.7181 26.3939 15.8488 26.6839 15.4107 26.0927C15.0011 25.5399 15.3478 24.5676 16.1276 24.5689C16.7235 24.6386 16.904 25.2227 16.8418 25.615Z" fill="#4E9C1F"/>
<path d="M20.3501 25.6725C20.2942 26.4255 19.4627 26.7512 18.9815 26.2086C18.5316 25.7017 18.7891 24.7518 19.5551 24.7107C20.15 24.7454 20.378 25.2937 20.3501 25.6725Z" fill="#4E9C1F"/>
<path d="M23.8839 25.5287C23.8929 26.2372 23.1108 26.6006 22.6161 26.1182C22.1444 25.6579 22.3112 24.7348 23.0395 24.6529C23.6142 24.6526 23.8792 25.1649 23.8839 25.5287Z" fill="#4E9C1F"/>
<path d="M27.321 25.1747C27.3873 25.8366 26.7064 26.2208 26.2171 25.7975C25.7507 25.394 25.825 24.522 26.479 24.4043C27.0036 24.3713 27.2871 24.8351 27.321 25.1747Z" fill="#4E9C1F"/>
<path d="M30.4273 24.6304C30.5379 25.2091 30.0836 25.5936 29.6431 25.294C29.1743 24.9755 29.1141 24.1109 29.6737 23.96C30.0944 23.9046 30.3677 24.3187 30.4273 24.6304Z" fill="#4E9C1F"/>
<path d="M32.9898 23.9414C33.1254 24.4367 32.858 24.8039 32.5056 24.6067C32.0971 24.3786 31.9205 23.5351 32.3493 23.3661C32.6637 23.2971 32.9132 23.6609 32.9898 23.9414Z" fill="#4E9C1F"/>
<path d="M34.9727 23.1369C35.1096 23.5337 34.9872 23.8624 34.7431 23.754C34.4243 23.6122 34.1721 22.8371 34.4656 22.6627C34.6772 22.5889 34.8893 22.8955 34.9727 23.1369Z" fill="#4E9C1F"/>
<path d="M36.3528 22.2455C36.4876 22.5783 36.4543 22.8632 36.2902 22.7806C36.0757 22.6725 35.8208 22.0218 35.9789 21.8613C36.1002 21.7896 36.2704 22.0425 36.3528 22.2455Z" fill="#4E9C1F"/>
<path d="M37.0943 21.2987C37.2049 21.5421 37.2402 21.7587 37.1639 21.7281C37.0566 21.6849 36.8074 21.1484 36.8575 21.0094C36.9022 20.9482 37.023 21.1416 37.0943 21.2987Z" fill="#4E9C1F"/>
<path d="M37.1752 20.3206C37.228 20.4287 37.305 20.6007 37.3023 20.6269C37.2728 20.6201 37.076 20.205 37.0549 20.121C37.0545 20.1183 37.0542 20.1145 37.0545 20.1118C37.074 20.1162 37.152 20.2726 37.1752 20.3206Z" fill="#4E9C1F"/>
<path d="M0.650029 23.7999C0.503417 24.3075 0.476852 24.3778 0.46811 24.401C0.469455 24.37 0.469452 24.37 0.477186 24.3377C0.620435 23.8148 0.798994 23.1135 0.966117 22.5977C0.975533 22.5688 0.985281 22.5403 0.996713 22.5121C0.996377 22.5209 0.996378 22.5325 0.996041 22.541C0.935178 22.8106 0.678947 23.6993 0.650029 23.7999Z" fill="#4E9C1F"/>
<path d="M0.99975 24.8759C0.858183 25.3471 0.697449 25.6007 0.625825 25.4654C0.456348 25.1448 0.892481 23.4609 1.12215 23.5486C1.13526 23.5537 1.14636 23.5711 1.15443 23.5826C1.2459 23.8148 1.11912 24.4788 0.99975 24.8759Z" fill="#4E9C1F"/>
<path d="M2.16147 25.938C1.98157 26.5363 1.65876 26.7754 1.49736 26.4299C1.22095 25.8384 1.65809 24.4153 2.06093 24.5954C2.07237 24.6005 2.08582 24.6107 2.09658 24.6172C2.34474 24.8514 2.28387 25.5307 2.16147 25.938Z" fill="#4E9C1F"/>
<path d="M4.10854 26.9236C3.90948 27.6206 3.40575 27.8415 3.14582 27.3459C2.80149 26.6883 3.24434 25.461 3.77766 25.595C3.79447 25.5991 3.81599 25.6082 3.83213 25.614C4.21951 25.8282 4.22691 26.5088 4.10854 26.9236Z" fill="#4E9C1F"/>
<path d="M6.64531 27.7449C6.45499 28.48 5.806 28.7118 5.46772 28.1651C5.07463 27.5297 5.47209 26.3221 6.19573 26.4775C6.685 26.6597 6.75326 27.3281 6.64531 27.7449Z" fill="#4E9C1F"/>
<path d="M9.66015 28.3933C9.48697 29.1684 8.70012 29.4122 8.30232 28.8142C7.87829 28.1767 8.26768 27.0722 9.06093 27.1735C9.62921 27.3214 9.75329 27.9758 9.66015 28.3933Z" fill="#4E9C1F"/>
<path d="M13.0373 28.857C12.8893 29.6726 11.9814 29.9303 11.5426 29.281C11.1246 28.6622 11.5023 27.6399 12.316 27.6895C12.9395 27.8021 13.1133 28.4399 13.0373 28.857Z" fill="#4E9C1F"/>
<path d="M16.6501 29.1219C16.5425 29.915 15.6288 30.2122 15.146 29.6111C14.686 29.0382 15.0158 28.0336 15.8481 28.0366C16.4927 28.1108 16.7049 28.7159 16.6501 29.1219Z" fill="#4E9C1F"/>
<path d="M20.3981 29.1837C20.3288 29.9966 19.3667 30.3056 18.8845 29.6702C18.476 29.132 18.7665 28.2263 19.549 28.1855C20.1902 28.2216 20.4317 28.7907 20.3981 29.1837Z" fill="#4E9C1F"/>
<path d="M24.1743 29.0301C24.1487 29.8151 23.2418 30.1649 22.7472 29.5805C22.3198 29.076 22.5461 28.2053 23.3081 28.1216C23.9258 28.1199 24.1864 28.6517 24.1743 29.0301Z" fill="#4E9C1F"/>
<path d="M27.8473 28.652C27.8621 29.3432 27.1244 29.7365 26.6331 29.2993C26.166 28.8835 26.3093 27.9799 27.0147 27.8548C27.5766 27.8181 27.8399 28.2988 27.8473 28.652Z" fill="#4E9C1F"/>
<path d="M31.1669 28.0703C31.2177 28.7006 30.646 29.098 30.2254 28.7244C29.8208 28.3647 29.8851 27.5246 30.4523 27.374C30.9016 27.3132 31.1407 27.7446 31.1669 28.0703Z" fill="#4E9C1F"/>
<path d="M33.9062 27.3343C33.9795 27.8772 33.616 28.2661 33.2788 28.0057C32.9149 27.7246 32.8816 26.9015 33.3252 26.7291C33.6597 26.6547 33.8662 27.0382 33.9062 27.3343Z" fill="#4E9C1F"/>
<path d="M36.0266 26.4745C36.1083 26.9229 35.9146 27.2727 35.6755 27.1092C35.3954 26.9175 35.2881 26.1467 35.5901 25.971C35.8134 25.8911 35.9798 26.2175 36.0266 26.4745Z" fill="#4E9C1F"/>
<path d="M37.5032 25.5218C37.5823 25.8757 37.5089 26.1797 37.3657 26.0923C37.1764 25.9767 37.0277 25.2798 37.2026 25.1081C37.3294 25.0313 37.4548 25.3036 37.5032 25.5218Z" fill="#4E9C1F"/>
<path d="M38.2977 24.5094C38.3653 24.7722 38.3714 25.0051 38.3098 24.9707C38.2234 24.9225 38.0701 24.3438 38.1279 24.1959C38.173 24.1307 38.2544 24.3398 38.2977 24.5094Z" fill="#4E9C1F"/>
<path d="M38.387 23.464C38.4196 23.5803 38.4697 23.7652 38.4734 23.7934C38.4579 23.7659 38.3368 23.3266 38.3187 23.244C38.318 23.241 38.3173 23.2372 38.317 23.2342C38.3261 23.2505 38.3601 23.3681 38.387 23.464Z" fill="#4E9C1F"/>
<path d="M0.0292517 27.2061C0.018155 27.3306 0.0084066 27.455 0 27.5798L0.154679 26.0693C0.10323 26.4415 0.0561528 26.9008 0.0292517 27.2061Z" fill="#4E9C1F"/>
<path d="M0.390699 28.3171C0.341268 28.7778 0.256863 29.045 0.185239 28.9665C0.00500135 28.7693 0.111598 26.9504 0.30495 26.9178C0.324453 26.9144 0.338238 26.9358 0.350343 26.9549C0.452904 27.1983 0.435422 27.8983 0.390699 28.3171Z" fill="#4E9C1F"/>
<path d="M1.59011 29.4142C1.51849 29.9949 1.28411 30.2601 1.08841 29.982C0.72558 29.4663 0.857728 27.9289 1.25889 28.0003C1.28243 28.0044 1.31101 28.022 1.33153 28.0346C1.59684 28.2794 1.64257 28.9889 1.59011 29.4142Z" fill="#4E9C1F"/>
<path d="M3.6003 30.4317C3.5122 31.0981 3.09692 31.35 2.7778 30.9305C2.30535 30.31 2.48088 29.0045 3.03135 29.0426C3.06564 29.045 3.11037 29.0599 3.14299 29.0715C3.55255 29.2955 3.65713 30.0017 3.6003 30.4317Z" fill="#4E9C1F"/>
<path d="M6.21957 31.28C6.12004 32.0229 5.50501 32.2578 5.10385 31.706C4.61021 31.0267 4.89973 29.8667 5.54032 29.9575C5.5615 29.9606 5.58941 29.968 5.6106 29.9728C6.12575 30.1625 6.27674 30.8513 6.21957 31.28Z" fill="#4E9C1F"/>
<path d="M9.33228 31.9487C9.22871 32.7436 8.47077 32.9843 8.00337 32.371C7.50637 31.7193 7.78581 30.5926 8.60124 30.6983C9.19778 30.8523 9.38776 31.5221 9.33228 31.9487Z" fill="#4E9C1F"/>
<path d="M12.8194 32.4278C12.7175 33.2597 11.8224 33.5133 11.3224 32.8518C10.8466 32.2218 11.1583 31.1842 11.9979 31.2369C12.6506 31.3531 12.8712 32.0032 12.8194 32.4278Z" fill="#4E9C1F"/>
<path d="M16.5492 32.7022C16.4597 33.5117 15.5454 33.8061 15.0205 33.1941C14.5104 32.5992 14.8036 31.5969 15.6833 31.6013C16.3562 31.6771 16.5946 32.2908 16.5492 32.7022Z" fill="#4E9C1F"/>
<path d="M20.4196 32.765C20.3422 33.5731 19.3509 33.8845 18.8596 33.2549C18.4252 32.698 18.716 31.7968 19.5426 31.7553C20.2107 31.7913 20.4576 32.3676 20.4196 32.765Z" fill="#4E9C1F"/>
<path d="M24.3186 32.6073C24.2581 33.3892 23.3125 33.7435 22.8303 33.1648C22.4056 32.6549 22.6689 31.7737 23.4595 31.688C24.1014 31.6849 24.3485 32.2238 24.3186 32.6073Z" fill="#4E9C1F"/>
<path d="M28.1123 32.2166C28.0699 32.951 27.2192 33.3351 26.7736 32.8211C26.4182 32.4111 26.5564 31.5414 27.3184 31.4085C27.9004 31.3691 28.1331 31.8573 28.1123 32.2166Z" fill="#4E9C1F"/>
<path d="M31.5413 31.6163C31.5228 32.2683 30.9128 32.6681 30.5217 32.2846C30.1394 31.91 30.2873 31.0651 30.8919 30.9064C31.3556 30.8428 31.5507 31.2831 31.5413 31.6163Z" fill="#4E9C1F"/>
<path d="M34.3713 30.8558C34.3706 31.4528 33.9254 31.8437 33.6268 31.5095C33.3353 31.1832 33.4277 30.4053 33.8736 30.2346C34.2173 30.1568 34.3713 30.5508 34.3713 30.8558Z" fill="#4E9C1F"/>
<path d="M36.5626 29.9681C36.5751 30.4634 36.3144 30.8235 36.106 30.5994C35.8837 30.3608 35.9129 29.6193 36.2163 29.4456C36.4442 29.3633 36.5559 29.7016 36.5626 29.9681Z" fill="#4E9C1F"/>
<path d="M38.0893 28.9842C38.1078 29.3602 37.9969 29.6706 37.8778 29.5774C37.7221 29.4554 37.6915 28.7278 37.8772 28.55C38.0049 28.4701 38.0782 28.7557 38.0893 28.9842Z" fill="#4E9C1F"/>
<path d="M38.9121 27.9377C38.9316 28.2114 38.9071 28.4538 38.8634 28.4184C38.8008 28.3674 38.7528 27.7569 38.8177 27.6011C38.8466 27.5566 38.8704 27.6399 38.8852 27.7174C38.8967 27.7772 38.9064 27.8554 38.9121 27.9377Z" fill="#4E9C1F"/>
<path d="M0.419252 31.8576C0.437747 32.0776 0.460611 32.4529 0.40311 32.4985C0.244058 32.4665 -0.00242129 30.5735 0.136792 30.4525C0.152596 30.4549 0.156631 30.4596 0.174453 30.4889C0.284075 30.7343 0.383608 31.4367 0.419252 31.8576Z" fill="#4E9C1F"/>
<path d="M1.6168 32.952C1.64572 33.4725 1.50785 33.7319 1.30912 33.5303C0.913672 33.1284 0.720996 31.5866 1.06029 31.5424C1.09761 31.5377 1.13292 31.5601 1.1615 31.5781C1.4369 31.826 1.5936 32.5308 1.6168 32.952Z" fill="#4E9C1F"/>
<path d="M3.62365 33.9685C3.63878 34.5706 3.33614 34.8171 2.98878 34.486C2.45883 33.9804 2.34685 32.6583 2.82939 32.5994C2.88958 32.592 2.94507 32.612 2.98945 32.628C3.40911 32.8531 3.61289 33.5473 3.62365 33.9685Z" fill="#4E9C1F"/>
<path d="M6.2377 34.8144C6.23467 35.4794 5.73599 35.7164 5.28472 35.2676C4.69391 34.6795 4.73258 33.5174 5.34324 33.5164C5.38493 33.5164 5.44008 33.528 5.48077 33.5368C6.00601 33.7275 6.23938 34.3986 6.2377 34.8144Z" fill="#4E9C1F"/>
<path d="M9.34438 35.4827C9.3195 36.2202 8.60527 36.4394 8.09112 35.8673C7.52116 35.2329 7.72897 34.2102 8.41797 34.2582C8.44252 34.2599 8.4748 34.2656 8.49901 34.269C9.10496 34.4227 9.35817 35.0714 9.34438 35.4827Z" fill="#4E9C1F"/>
<path d="M12.8252 35.9608C12.7784 36.7281 11.9125 36.9596 11.3775 36.3483C10.8425 35.7367 11.1223 34.7998 11.8379 34.8055C11.8645 34.8059 11.8998 34.8096 11.9263 34.8113C12.5878 34.9272 12.85 35.5531 12.8252 35.9608Z" fill="#4E9C1F"/>
<path d="M16.5482 36.2348C16.4799 37.0225 15.5031 37.2656 14.9883 36.6227C14.5377 36.06 14.8168 35.1717 15.645 35.1778C16.3246 35.2526 16.5822 35.8411 16.5482 36.2348Z" fill="#4E9C1F"/>
<path d="M20.4116 36.2977C20.3278 37.0575 19.3547 37.3438 18.8577 36.755C18.4226 36.2396 18.7161 35.3713 19.5363 35.3315C20.2095 35.3668 20.4533 35.918 20.4116 36.2977Z" fill="#4E9C1F"/>
<path d="M24.3041 36.1399C24.2049 36.9039 23.1783 37.2122 22.757 36.6047C22.4496 36.1614 22.687 35.3468 23.483 35.2621C24.1282 35.258 24.3515 35.7731 24.3041 36.1399Z" fill="#4E9C1F"/>
<path d="M28.0915 35.7507C27.9863 36.4749 27.0521 36.8223 26.6839 36.2743C26.4163 35.8762 26.6476 35.0997 27.3662 34.9756C27.95 34.9355 28.142 35.4046 28.0915 35.7507Z" fill="#4E9C1F"/>
<path d="M31.5154 35.1517C31.4202 35.7966 30.7302 36.1723 30.4131 35.7514C30.136 35.3835 30.3845 34.6196 30.9578 34.4714C31.4212 34.4064 31.5628 34.83 31.5154 35.1517Z" fill="#4E9C1F"/>
<path d="M34.3419 34.3925C34.2605 34.9541 33.7823 35.3322 33.5426 35.0245C33.3075 34.7229 33.5039 33.9614 33.9498 33.7934C34.2914 33.7149 34.3849 34.0964 34.3419 34.3925Z" fill="#4E9C1F"/>
<path d="M36.5314 33.5065C36.4661 33.9774 36.1696 34.3272 36.0115 34.1202C35.843 33.8995 35.9876 33.1693 36.2916 32.9986C36.5173 32.9149 36.5677 33.2454 36.5314 33.5065Z" fill="#4E9C1F"/>
<path d="M38.0574 32.5236C38.0087 32.9037 37.8473 33.2151 37.7649 33.0883C37.665 32.935 37.7635 32.2669 37.9458 32.0973C38.0709 32.0171 38.0863 32.2986 38.0574 32.5236Z" fill="#4E9C1F"/>
<path d="M38.8812 31.4796C38.859 31.6761 38.8099 31.9515 38.7746 31.9576C38.7312 31.9202 38.8052 31.2899 38.8701 31.1451C38.8772 31.1335 38.8789 31.1315 38.8849 31.1308C38.9088 31.1525 38.8977 31.3324 38.8812 31.4796Z" fill="#4E9C1F"/>
<path d="M1.08182 35.206C1.14571 35.4294 1.22137 35.7112 1.21868 35.7874C1.21565 35.7884 1.21196 35.7894 1.20893 35.7905C1.09157 35.6337 0.610376 34.0889 0.617101 33.8907C0.620127 33.8893 0.624165 33.8876 0.626855 33.8863C0.634253 33.8961 0.642994 33.9104 0.649046 33.9209C0.766739 34.1671 0.976905 34.8396 1.08182 35.206Z" fill="#4E9C1F"/>
<path d="M2.23747 36.2624C2.3397 36.6765 2.30809 36.9107 2.1598 36.8322C1.80941 36.6462 1.25693 35.084 1.49601 34.9538C1.533 34.9338 1.57033 34.9582 1.60967 34.9841C1.88373 35.2227 2.14164 35.8752 2.23747 36.2624Z" fill="#4E9C1F"/>
<path d="M4.17379 37.2425C4.27399 37.7535 4.0793 37.982 3.74808 37.7416C3.17172 37.3235 2.7988 36.0207 3.24267 35.9772C3.29546 35.9721 3.34893 35.9918 3.39164 36.0077C3.80659 36.2247 4.0988 36.8604 4.17379 37.2425Z" fill="#4E9C1F"/>
<path d="M6.69632 38.0594C6.77501 38.6275 6.40243 38.8475 5.9441 38.5038C5.3089 38.0268 5.10176 36.9464 5.63238 36.875C5.70233 36.8658 5.76958 36.8811 5.82338 36.8933C6.33954 37.0759 6.64454 37.6851 6.69632 38.0594Z" fill="#4E9C1F"/>
<path d="M9.69446 38.7044C9.74087 39.3272 9.15946 39.5373 8.62178 39.0923C7.97615 38.5575 7.97178 37.6192 8.61471 37.5937C8.66078 37.592 8.72232 37.5998 8.76805 37.6063C9.36156 37.7531 9.66722 38.3369 9.69446 38.7044Z" fill="#4E9C1F"/>
<path d="M13.0534 39.1657C13.0581 39.8548 12.2615 40.051 11.7006 39.4986C11.129 38.9356 11.323 38.1162 12.0248 38.1285C12.0507 38.1288 12.085 38.1325 12.1109 38.1346C12.7568 38.2444 13.0511 38.8036 13.0534 39.1657Z" fill="#4E9C1F"/>
<path d="M16.6464 39.4299C16.6027 40.1337 15.687 40.341 15.1621 39.7661C14.7038 39.2643 14.9371 38.4763 15.7378 38.4855C16.4006 38.5562 16.6679 39.0804 16.6464 39.4299Z" fill="#4E9C1F"/>
<path d="M20.3749 39.4917C20.2842 40.1969 19.2727 40.424 18.8291 39.8385C18.4734 39.369 18.7757 38.6663 19.5303 38.6326C20.185 38.6646 20.4183 39.1541 20.3749 39.4917Z" fill="#4E9C1F"/>
<path d="M24.1319 39.3398C24.0008 40.0269 23.0162 40.3016 22.6268 39.7593C22.3453 39.3673 22.6026 38.6432 23.3736 38.5646C23.9998 38.5582 24.1941 39.0141 24.1319 39.3398Z" fill="#4E9C1F"/>
<path d="M27.7879 38.9644C27.6268 39.6175 26.7223 39.931 26.4048 39.4431C26.1762 39.0916 26.4532 38.3987 27.1517 38.2814C27.7169 38.2399 27.8639 38.6557 27.7879 38.9644Z" fill="#4E9C1F"/>
<path d="M31.0933 38.3865C30.9218 38.9937 30.1833 39.3272 29.9644 38.8962C29.7892 38.5518 30.11 37.918 30.6417 37.7834C31.0889 37.7185 31.175 38.0969 31.0933 38.3865Z" fill="#4E9C1F"/>
<path d="M33.8224 37.6542C33.6593 38.188 33.1314 38.5341 32.979 38.207C32.8445 37.9184 33.1287 37.2751 33.543 37.1228C33.8718 37.0443 33.9044 37.3863 33.8224 37.6542Z" fill="#4E9C1F"/>
<path d="M35.9376 36.7988C35.8011 37.2292 35.4806 37.5556 35.3754 37.371C35.26 37.1691 35.5028 36.5112 35.8071 36.3446C36.0227 36.2623 36.0133 36.5608 35.9376 36.7988Z" fill="#4E9C1F"/>
<path d="M37.4124 35.851C37.3014 36.2018 37.1111 36.4942 37.0673 36.3817C37.0142 36.2443 37.2193 35.6259 37.4003 35.4631C37.5072 35.3917 37.4725 35.6042 37.4594 35.6711C37.452 35.7085 37.4379 35.7701 37.4124 35.851Z" fill="#4E9C1F"/>
<path d="M38.2097 34.8426C38.161 35.0027 38.0759 35.257 38.048 35.2938C38.047 35.2931 38.0456 35.2924 38.0443 35.2917C38.0443 35.219 38.2144 34.6689 38.2777 34.5373C38.28 34.5332 38.2834 34.5275 38.2864 34.5237C38.2874 34.5244 38.2891 34.5251 38.2901 34.5258C38.2908 34.5727 38.2289 34.7804 38.2097 34.8426Z" fill="#4E9C1F"/>
<path d="M2.32198 38.2822C2.41143 38.4572 2.49952 38.6337 2.59334 38.8064C2.32164 38.2883 1.95242 37.6005 1.70628 37.0695C1.71199 37.0797 1.71939 37.0936 1.72477 37.1041C1.92485 37.4961 2.12157 37.8902 2.32198 38.2822Z" fill="#4E9C1F"/>
<path d="M3.4 39.2671C3.55737 39.604 3.59839 39.8097 3.50155 39.7791C3.21842 39.6897 2.36868 38.1927 2.53412 38.0751C2.55766 38.0585 2.59196 38.0816 2.62827 38.1064C2.88955 38.3274 3.23691 38.9179 3.4 39.2671Z" fill="#4E9C1F"/>
<path d="M5.20532 40.1812C5.35899 40.5671 5.29073 40.7762 5.0466 40.6677C4.49984 40.4246 3.79738 39.1681 4.14105 39.0477C4.19552 39.0287 4.25033 39.0494 4.3085 39.0715C4.7026 39.2731 5.07014 39.8419 5.20532 40.1812Z" fill="#4E9C1F"/>
<path d="M7.55758 40.9431C7.69209 41.3766 7.47991 41.5822 7.09387 41.3929C6.42774 41.0655 5.93477 40.0306 6.38066 39.8966C6.45934 39.8732 6.52895 39.8895 6.60259 39.9068C7.09186 40.0758 7.45569 40.6147 7.55758 40.9431Z" fill="#4E9C1F"/>
<path d="M10.3532 41.5445C10.4578 42.0518 10.0176 42.2401 9.49708 41.911C8.87028 41.515 8.64162 40.7201 9.11475 40.5824C9.21361 40.5535 9.29431 40.5654 9.38005 40.5777C9.94162 40.7133 10.287 41.2246 10.3532 41.5445Z" fill="#4E9C1F"/>
<path d="M13.4851 41.9743C13.5379 42.5553 12.8207 42.7157 12.2672 42.2469C11.7221 41.7852 11.7833 41.1145 12.3744 41.0703C12.4215 41.0669 12.4847 41.0709 12.5318 41.0743C13.1421 41.1756 13.4565 41.6615 13.4851 41.9743Z" fill="#4E9C1F"/>
<path d="M16.8354 42.2214C16.8166 42.8484 15.9033 42.9942 15.4191 42.4479C15.0287 42.0072 15.2378 41.3926 15.951 41.4035C16.5761 41.4674 16.8445 41.9202 16.8354 42.2214Z" fill="#4E9C1F"/>
<path d="M20.3123 42.2789C20.2168 42.9102 19.2073 43.0754 18.8331 42.5209C18.5594 42.1157 18.8455 41.567 19.5244 41.5394C20.1408 41.567 20.3563 41.9885 20.3123 42.2789Z" fill="#4E9C1F"/>
<path d="M23.8162 42.1375C23.6517 42.7562 22.6641 42.9721 22.3685 42.4536C22.1752 42.1143 22.4452 41.5388 23.1433 41.4704C23.7317 41.4623 23.8911 41.8556 23.8162 42.1375Z" fill="#4E9C1F"/>
<path d="M27.2263 41.7876C27.0074 42.3802 26.0951 42.6382 25.8893 42.166C25.7558 41.8597 26.0642 41.3062 26.6964 41.2029C27.2263 41.1617 27.3252 41.5201 27.2263 41.7876Z" fill="#4E9C1F"/>
<path d="M30.3098 41.2491C30.0724 41.7842 29.3716 42.0779 29.2233 41.7043C29.1056 41.4079 29.4738 40.8544 29.9742 40.7306C30.3922 40.6677 30.4221 40.9958 30.3098 41.2491Z" fill="#4E9C1F"/>
<path d="M32.8561 40.5668C32.6207 41.0431 32.1069 41.3497 32.0228 41.0641C31.9492 40.8136 32.3029 40.2448 32.6947 40.1037C33.001 40.0282 32.9734 40.3291 32.8561 40.5668Z" fill="#4E9C1F"/>
<path d="M34.8306 39.7692C34.6315 40.15 34.2983 40.4447 34.2458 40.2863C34.1877 40.1105 34.5206 39.5234 34.8097 39.3687C34.9984 39.2946 34.9359 39.535 34.8767 39.6723C34.8642 39.7019 34.8454 39.7406 34.8306 39.7692Z" fill="#4E9C1F"/>
<path d="M36.2076 38.8852C36.0485 39.1858 35.8488 39.4438 35.8256 39.3789C35.7956 39.2939 36.1134 38.6945 36.291 38.5402C36.3108 38.5266 36.3518 38.498 36.3357 38.5796C36.3232 38.6425 36.2755 38.7567 36.2076 38.8852Z" fill="#4E9C1F"/>
<path d="M36.7413 38.3556C36.8623 38.1284 36.9777 37.8979 37.095 37.6688C37.0974 37.6644 37.0997 37.6596 37.1021 37.6552L36.7413 38.3556Z" fill="#4E9C1F"/>
<path d="M5.04968 41.9131C5.17611 42.0838 5.32474 42.2976 5.316 42.3486C5.20436 42.3986 4.05871 41.0108 4.08998 40.8636C4.10545 40.8561 4.11352 40.8595 4.16194 40.8939C4.40876 41.0961 4.82808 41.6143 5.04968 41.9131Z" fill="#4E9C1F"/>
<path d="M6.66981 42.7334C6.8524 43.0115 6.883 43.1829 6.74547 43.1597C6.36448 43.0951 5.353 41.9287 5.5292 41.757C5.56586 41.7213 5.64219 41.7512 5.68759 41.7692C6.06588 41.9579 6.49092 42.4608 6.66981 42.7334Z" fill="#4E9C1F"/>
<path d="M8.78058 43.4172C8.94938 43.732 8.87271 43.9026 8.59832 43.8234C8.00784 43.6524 7.24486 42.709 7.55153 42.5291C7.61879 42.4897 7.71664 42.5135 7.77481 42.5274C8.22036 42.6784 8.63094 43.1387 8.78058 43.4172Z" fill="#4E9C1F"/>
<path d="M11.2891 43.9567C11.4324 44.33 11.1758 44.4966 10.74 44.313C10.1108 44.0478 9.66226 43.3219 10.0237 43.1537C10.1179 43.1098 10.2322 43.1268 10.3005 43.1367C10.8119 43.2577 11.1862 43.6891 11.2891 43.9567Z" fill="#4E9C1F"/>
<path d="M14.0996 44.3429C14.1937 44.7984 13.6514 44.9392 13.1164 44.5978C12.5908 44.2626 12.4741 43.7231 12.9012 43.6027C13.0003 43.5748 13.0804 43.581 13.1655 43.5878C13.721 43.6772 14.0461 44.0831 14.0996 44.3429Z" fill="#4E9C1F"/>
<path d="M17.1061 44.5649C17.1138 45.0762 16.3179 45.1894 15.8538 44.7427C15.4664 44.3701 15.6564 43.8972 16.1982 43.8849C16.2207 43.8846 16.2509 43.886 16.2738 43.8863C16.8418 43.9424 17.1024 44.3167 17.1061 44.5649Z" fill="#4E9C1F"/>
<path d="M20.2266 44.6165C20.1338 45.1323 19.242 45.2649 18.9014 44.8137C18.6744 44.5129 18.8607 44.0321 19.5195 44.008C20.0787 44.0308 20.2697 44.3775 20.2266 44.6165Z" fill="#4E9C1F"/>
<path d="M23.3717 44.4897C23.1773 45.0197 22.2328 45.1768 22.0414 44.7107C21.9321 44.4441 22.1803 44.0022 22.8037 43.9434C23.337 43.9338 23.4568 44.2572 23.3717 44.4897Z" fill="#4E9C1F"/>
<path d="M26.4328 44.1759C26.1782 44.6543 25.3453 44.8743 25.2121 44.4986C25.123 44.247 25.4512 43.788 26.0235 43.6969C26.5027 43.6578 26.5515 43.9536 26.4328 44.1759Z" fill="#4E9C1F"/>
<path d="M29.2014 43.6929C28.9136 44.1328 28.2619 44.3851 28.1906 44.0838C28.1378 43.8612 28.5054 43.3821 28.9899 43.2652C29.3669 43.2067 29.3407 43.48 29.2014 43.6929Z" fill="#4E9C1F"/>
<path d="M31.488 43.0805C31.2103 43.4583 30.7435 43.7248 30.6954 43.5331C30.6517 43.3587 31.0489 42.8348 31.4467 42.6947C31.7069 42.6287 31.6276 42.8585 31.5492 42.9891C31.5324 43.0173 31.5075 43.0537 31.488 43.0805Z" fill="#4E9C1F"/>
<path d="M33.2619 42.3653C33.0245 42.6695 32.701 42.9256 32.6751 42.8293C32.6432 42.7107 33.0722 42.1701 33.3483 42.0263C33.433 41.992 33.4569 42.0216 33.4199 42.1137C33.4082 42.1436 33.3688 42.2279 33.2619 42.3653Z" fill="#4E9C1F"/>
<path d="M34.5001 41.5711C34.3599 41.7489 34.1359 42.0028 34.0902 42.012C34.0737 41.9566 34.5293 41.3953 34.6739 41.2743C34.6897 41.2627 34.6931 41.2607 34.7018 41.259C34.7029 41.2597 34.7042 41.2607 34.7049 41.2614C34.7059 41.3079 34.5344 41.5275 34.5001 41.5711Z" fill="#4E9C1F"/>
<path d="M7.1302 44.1474C7.44763 44.4312 7.49673 44.4748 7.52094 44.5006C7.49807 44.4873 7.49807 44.4873 7.43755 44.4397L7.09052 44.1572L6.39008 43.5456C6.26499 43.43 6.13385 43.3063 6.10628 43.2648C6.11704 43.2655 6.11704 43.2655 6.15335 43.2927C6.31678 43.4215 6.58579 43.6612 7.1302 44.1474Z" fill="#4E9C1F"/>
<path d="M8.51722 44.8498C8.59792 44.9283 8.85382 45.1843 8.75866 45.1867C8.53302 45.1921 7.2949 44.1749 7.36451 44.041C7.37863 44.0138 7.44319 44.0403 7.48186 44.0559C7.80199 44.2113 8.27645 44.6159 8.51722 44.8498Z" fill="#4E9C1F"/>
<path d="M10.3233 45.4348C10.5076 45.646 10.5314 45.7735 10.3838 45.7602C9.95173 45.7211 8.91435 44.8586 9.1225 44.7114C9.16487 44.6815 9.24893 44.7025 9.29904 44.7148C9.7039 44.8487 10.1421 45.2275 10.3233 45.4348Z" fill="#4E9C1F"/>
<path d="M12.4704 45.8969C12.6227 46.1288 12.541 46.2603 12.2757 46.2093C11.7249 46.1036 11.011 45.4539 11.2437 45.2696C11.312 45.2156 11.4283 45.2336 11.4976 45.2442C11.9398 45.3465 12.3329 45.6875 12.4704 45.8969Z" fill="#4E9C1F"/>
<path d="M14.8763 46.2277C14.9973 46.5392 14.6695 46.6581 14.2142 46.4678C13.6741 46.242 13.3991 45.7885 13.7232 45.659C13.8164 45.6219 13.925 45.6307 13.9902 45.6362C14.4718 45.7113 14.7983 46.0272 14.8763 46.2277Z" fill="#4E9C1F"/>
<path d="M17.4495 46.4177C17.4854 46.8247 16.7702 46.8845 16.3559 46.5092C16.06 46.241 16.1663 45.9302 16.5664 45.8939C16.6044 45.8905 16.6559 45.8915 16.6942 45.8922C17.1872 45.9384 17.4326 46.2274 17.4495 46.4177Z" fill="#4E9C1F"/>
<path d="M20.1206 46.4623C20.0305 46.8652 19.2184 46.9447 18.9615 46.5762C18.7897 46.3294 19.0113 46.0135 19.515 45.9972C20.0006 46.0149 20.1613 46.2797 20.1206 46.4623Z" fill="#4E9C1F"/>
<path d="M22.8132 46.3539C22.604 46.755 21.8 46.8774 21.6658 46.5286C21.5878 46.326 21.8276 45.987 22.3663 45.9387C22.829 45.9285 22.9063 46.1754 22.8132 46.3539Z" fill="#4E9C1F"/>
<path d="M25.4343 46.086C25.134 46.4701 24.3727 46.6337 24.3623 46.3161C24.3563 46.1288 24.6703 45.796 25.1582 45.7205C25.5302 45.6882 25.591 45.885 25.4343 46.086Z" fill="#4E9C1F"/>
<path d="M27.8057 45.6725C27.4782 46.0108 26.8941 46.2158 26.9002 45.9904C26.9049 45.8191 27.3057 45.4417 27.7247 45.3431C28.0334 45.2934 27.956 45.4872 27.872 45.5967C27.8535 45.6205 27.8266 45.6508 27.8057 45.6725Z" fill="#4E9C1F"/>
<path d="M29.7648 45.1483C29.4464 45.442 29.0025 45.6637 29.0233 45.5192C29.0425 45.3835 29.5005 44.965 29.8435 44.8474C30.0079 44.8042 29.9736 44.8946 29.9387 44.9521C29.9155 44.9895 29.867 45.0541 29.7648 45.1483Z" fill="#4E9C1F"/>
<path d="M31.2853 44.5359C31.0664 44.728 30.7597 44.9476 30.7072 44.9317C30.68 44.8793 31.2227 44.3928 31.4753 44.2657C31.4995 44.2555 31.5496 44.2344 31.5281 44.2796C31.5112 44.315 31.439 44.401 31.2853 44.5359Z" fill="#4E9C1F"/>
<path d="M32.3475 43.856C32.1622 44.0185 31.9524 44.1939 31.9134 44.2222C31.9262 44.2024 32.523 43.6792 32.6051 43.6136C32.6101 43.6099 32.6168 43.6048 32.6219 43.6014C32.6155 43.6201 32.3922 43.8169 32.3475 43.856Z" fill="#4E9C1F"/>
<path d="M10.7016 46.4854C11.0177 46.6751 11.048 46.6955 11.0742 46.7152C10.9915 46.7356 9.66829 45.988 9.56809 45.8642C9.56977 45.8619 9.57212 45.8588 9.5738 45.8568C9.59364 45.8612 9.60205 45.8643 9.64005 45.8806C9.81861 45.9639 10.0964 46.1223 10.7016 46.4854Z" fill="#4E9C1F"/>
<path d="M12.1486 46.9542C12.3988 47.1225 12.3944 47.1535 12.3931 47.1653C12.2801 47.2412 10.9956 46.5537 11.005 46.4225C11.0073 46.3875 11.0833 46.4075 11.1334 46.4205C11.5504 46.5537 12.1426 46.9505 12.1486 46.9542Z" fill="#4E9C1F"/>
<path d="M13.8686 47.3245C14.0155 47.4489 14.0417 47.5267 13.9392 47.5318C13.5999 47.5495 12.624 47.0022 12.7525 46.8662C12.7868 46.8298 12.8813 46.8451 12.9378 46.8539C13.309 46.9369 13.7055 47.1864 13.8686 47.3245Z" fill="#4E9C1F"/>
<path d="M15.7956 47.5893C15.9052 47.7352 15.8225 47.8181 15.5949 47.7909C15.1739 47.7406 14.5589 47.3693 14.7287 47.2133C14.7895 47.1575 14.925 47.1694 14.9829 47.1745C15.3719 47.233 15.6924 47.4523 15.7956 47.5893Z" fill="#4E9C1F"/>
<path d="M17.8569 47.7419C17.9164 47.9945 17.3649 48.0261 17.0014 47.7909C16.7607 47.6351 16.7633 47.4502 17.0071 47.3955C17.0794 47.3791 17.1383 47.3809 17.2005 47.3825C17.6033 47.4179 17.8266 47.6141 17.8569 47.7419Z" fill="#4E9C1F"/>
<path d="M19.9973 47.778C19.9095 48.0601 19.1741 48.0788 19.0376 47.8024C18.9629 47.6508 19.1395 47.475 19.512 47.4652C19.9098 47.4774 20.0353 47.6556 19.9973 47.778Z" fill="#4E9C1F"/>
<path d="M22.1547 47.6912C21.9311 47.9605 21.2502 48.0343 21.2206 47.7922C21.2041 47.6583 21.4334 47.4502 21.8444 47.4159C22.185 47.4067 22.2707 47.5515 22.1547 47.6912Z" fill="#4E9C1F"/>
<path d="M24.2558 47.4768C23.9794 47.6957 23.3576 47.8582 23.3721 47.6651C23.3818 47.5373 23.7218 47.2932 24.1226 47.2337C24.4135 47.2068 24.394 47.3245 24.3365 47.3982C24.3227 47.4166 24.2914 47.4486 24.2558 47.4768Z" fill="#4E9C1F"/>
<path d="M26.157 47.146C25.8456 47.3472 25.3701 47.5067 25.3742 47.4081C25.3782 47.3119 25.8483 47.0049 26.2108 46.9226C26.3951 46.8913 26.3661 46.9593 26.3322 47.0025C26.3107 47.0304 26.2626 47.0776 26.157 47.146Z" fill="#4E9C1F"/>
<path d="M27.7287 46.7261C27.4681 46.8798 27.0834 47.0566 27.0474 47.027C27.0488 46.9665 27.6443 46.6085 27.9301 46.514C27.96 46.5058 28.0229 46.4885 28.0024 46.5252C27.9866 46.5534 27.9062 46.6214 27.7287 46.7261Z" fill="#4E9C1F"/>
<path d="M28.9497 46.2351C28.7049 46.3762 28.4181 46.5251 28.3838 46.5353C28.3976 46.5153 29.0792 46.1161 29.2429 46.0369C29.2537 46.0322 29.2641 46.0271 29.2755 46.0243C29.2718 46.0488 28.9827 46.2161 28.9497 46.2351Z" fill="#4E9C1F"/>
</g>
<g clip-path="url(#clip2_24_17237)">
<path d="M90.1253 12.1805L88.7526 9.9218L87.4094 12.1805H85.8001L87.8671 8.77872L85.7603 5.62061H87.4417L88.7911 7.72912L90.0778 5.62061H91.6863L89.6134 8.88195L91.7431 12.1805H90.1253Z" fill="#25303C"/>
<path d="M96.9729 9.98137C96.9729 11.4244 95.8758 12.3243 94.4369 12.3243C93.1693 12.3243 92.1014 11.6309 91.9976 10.1218H93.3702C93.4642 10.778 93.9948 11.0589 94.5716 11.0589C95.291 11.0589 95.6015 10.5808 95.6015 9.96231C95.6015 9.31589 95.1188 8.91271 94.4472 8.91271C93.8879 8.91271 93.5197 9.175 93.3492 9.45634H92.0374L92.4906 5.65137H96.8046L96.661 6.92604H93.5747L93.4521 8.18521C93.4521 8.18521 93.7765 7.80728 94.7586 7.80728C95.942 7.80728 96.9729 8.59371 96.9729 9.98137Z" fill="#25303C"/>
<path d="M92.1595 4.80451C91.4288 1.98268 89.1094 0 84.2965 0H78.4863L79.2747 5.28168C79.868 10.0477 81.7086 11.5806 84.9663 12.1455C84.9811 12.1477 85.0844 12.1624 85.0862 12.0427C85.0862 11.9998 85.0585 11.9625 85.0209 11.9466C82.8191 11.0286 82.5686 8.01801 82.0979 4.99724L81.7341 2.58967H85.0517C88.1094 2.58967 90.4704 2.54182 91.9657 4.87939C91.9876 4.91218 92.023 4.93654 92.0633 4.93654C92.1214 4.93654 92.1648 4.89002 92.1648 4.83287C92.1639 4.82312 92.1621 4.81337 92.1595 4.80451Z" fill="#25303C"/>
</g>
<rect x="103.135" y="3.89185" width="0.324324" height="9.72973" fill="#25303C"/>
<g clip-path="url(#clip3_24_17237)">
<path d="M132.614 5.67019L131.34 6.93542L130.066 5.67019C129.363 4.97228 129.363 3.83764 130.066 3.11791C130.769 2.42001 131.911 2.42001 132.614 3.11791C133.317 3.83798 133.317 4.97228 132.614 5.67019Z" fill="#25303C"/>
<path d="M130.067 9.24838L131.341 7.98315L132.615 9.24838C133.318 9.94629 133.318 11.0809 132.615 11.8007C131.912 12.4989 130.77 12.4989 130.067 11.8007C129.364 11.0806 129.364 9.94629 130.067 9.24838Z" fill="#25303C"/>
<path d="M133.141 8.7471L131.868 7.46005L133.141 6.19482C133.844 5.49691 134.987 5.49691 135.689 6.19482C136.392 6.89272 136.392 8.02737 135.689 8.7471C134.987 9.445 133.844 9.445 133.141 8.7471Z" fill="#25303C"/>
<path d="M129.561 6.19295L130.835 7.45818L129.561 8.7234C128.858 9.42131 127.716 9.42131 127.014 8.7234C126.311 8.0255 126.311 6.89085 127.014 6.17113C127.694 5.4947 128.858 5.4947 129.561 6.19295Z" fill="#25303C"/>
</g>
<path d="M114.486 2.59448C111.804 2.59448 109.622 4.77673 109.622 7.45935C109.622 10.142 111.804 12.3242 114.486 12.3242C117.169 12.3242 119.351 10.142 119.351 7.45935C119.351 4.77673 117.169 2.59448 114.486 2.59448ZM116.941 3.97057C116.57 4.92291 115.725 5.12117 114.5 5.12117C114.377 5.12117 114.255 5.11949 114.137 5.11748L114.113 5.11714L114.062 5.11647C113.959 5.11513 113.861 5.11378 113.764 5.11378C113.665 5.11378 113.564 5.11513 113.464 5.11949C113.636 4.69844 113.909 4.41213 114.299 4.23873C114.842 3.99712 115.549 3.99443 116.172 3.99275C116.443 3.99107 116.703 3.99006 116.941 3.97057ZM114.5 5.59163C115.55 5.59163 116.774 5.47167 117.323 4.27536C118.199 5.05632 118.751 6.19315 118.751 7.45901C118.751 9.81466 116.842 11.7237 114.486 11.7237C112.131 11.7237 110.221 9.81466 110.221 7.45901C110.221 5.1037 112.131 3.19432 114.486 3.19432C115.066 3.19432 115.619 3.31059 116.123 3.52028C114.904 3.52498 113.385 3.5522 112.915 5.27911C112.901 5.33355 112.814 5.66455 112.788 5.78318L112.373 7.45128L112.388 7.458L113.249 7.8253C113.957 6.53154 115.51 7.12129 115.359 8.22821C115.21 9.31665 113.892 9.84121 113.241 8.79209C113.211 8.74269 113.182 8.68859 113.164 8.63247L112.193 8.88214C112.226 8.98833 112.31 9.18727 112.358 9.2864C112.816 10.2253 113.837 10.5691 114.758 10.3392C115.604 10.1285 116.403 9.39528 116.532 8.27391C116.723 6.60883 114.934 5.51501 113.58 6.61857L113.845 5.58491C113.93 5.58558 114.018 5.58659 114.109 5.58794C114.235 5.58962 114.366 5.59163 114.5 5.59163Z" fill="#25303C"/>
<path d="M147.303 3.42611C148.322 3.08563 149.48 3.22168 150.389 3.82351C150.905 4.17198 151.387 4.62109 151.662 5.21008C151.964 5.26977 152.276 5.30413 152.562 5.42839C152.649 5.45234 152.701 5.56479 152.644 5.646C152.475 5.97191 152.208 6.2218 151.98 6.49981C152.076 7.51119 151.881 8.54998 151.432 9.44925C150.923 10.4995 150.001 11.3526 148.894 11.599C147.838 11.7705 146.746 11.6483 145.735 11.2891C145.281 11.1256 144.845 10.8969 144.465 10.5849C144.84 10.4874 145.218 10.4044 145.591 10.3006C144.659 10.1569 143.807 9.58392 143.242 8.79259C142.982 8.4292 142.851 7.9839 142.761 7.54312C142.667 6.90519 142.675 6.23846 142.872 5.62171C143.466 5.98891 144.088 6.3412 144.77 6.48315C144.916 5.81434 145.092 5.12053 145.523 4.58708C145.97 3.99913 146.633 3.64824 147.303 3.42611ZM149.077 4.43749C148.851 4.50239 148.634 4.6204 148.48 4.81129C148.228 5.12331 148.157 5.54917 148.154 5.949C148.149 6.43421 148.2 6.96871 148.519 7.34633C148.817 7.69444 149.309 7.72221 149.719 7.64412C150.153 7.58164 150.552 7.28212 150.729 6.85556C150.932 6.36618 150.954 5.78969 150.775 5.28817C150.513 4.60894 149.741 4.21883 149.077 4.43749ZM149.801 5.07749C149.918 5.01433 150.07 5.04903 150.15 5.16183C150.302 5.37286 150.323 5.65676 150.316 5.91325C150.312 6.14996 150.18 6.41929 149.935 6.44601C149.718 6.42727 149.582 6.20341 149.563 5.99065C149.508 5.67828 149.52 5.267 149.801 5.07749Z" fill="#25303C"/>
<defs>
<clipPath id="clip0_24_17237">
<rect width="88.8649" height="26.5946" fill="white" transform="translate(45.4053 20.1082)"/>
</clipPath>
<clipPath id="clip1_24_17237">
<rect width="38.9189" height="38.9189" fill="white" transform="translate(0 9.08105)"/>
</clipPath>
<clipPath id="clip2_24_17237">
<rect width="18.4865" height="12.3243" fill="white" transform="translate(78.4863)"/>
</clipPath>
<clipPath id="clip3_24_17237">
<rect width="9.72973" height="9.72973" fill="white" transform="translate(126.486 2.59448)"/>
</clipPath>
</defs>
</svg>
