<svg width="16" height="13" viewBox="0 0 16 13" fill="none" xmlns="http://www.w3.org/2000/svg">
<path d="M8.00551 0.0811025C9.67961 -0.200156 11.4747 0.258691 12.778 1.35471C13.5169 1.98728 14.1806 2.76184 14.4912 3.69893C14.9539 3.85467 15.4371 3.97464 15.8613 4.22268C15.9934 4.27731 16.0514 4.45636 15.945 4.56438C15.611 5.01163 15.1379 5.32438 14.7217 5.68772C14.6615 7.21352 14.1365 8.71551 13.2427 9.95417C12.2227 11.4042 10.5935 12.4691 8.80034 12.591C7.103 12.6127 5.41098 12.1894 3.89501 11.4313C3.21462 11.0879 2.57687 10.6512 2.04455 10.1032C2.65486 10.041 3.2668 10.0013 3.87509 9.92915C2.43937 9.50949 1.21809 8.46819 0.496737 7.16661C0.162091 6.56831 0.0495014 5.87715 0.000865908 5.20127C-0.0146467 4.23135 0.136867 3.24141 0.575308 2.36745C1.43342 3.0451 2.33854 3.70692 3.38172 4.06852C3.75114 3.10601 4.17289 2.11248 4.96209 1.41402C5.79034 0.639101 6.90538 0.263045 8.00551 0.0811025ZM10.5859 1.97782C10.2162 2.02411 9.85104 2.15201 9.56938 2.40217C9.1055 2.81056 8.90511 3.42838 8.81737 4.02223C8.70819 4.74283 8.6771 5.54916 9.09974 6.18194C9.49645 6.76555 10.2644 6.91564 10.9252 6.89006C11.6212 6.89329 12.3105 6.53544 12.6794 5.94011C13.1003 5.25702 13.2549 4.40382 13.0798 3.61887C12.8089 2.55023 11.677 1.79953 10.5859 1.97782ZM11.5902 3.09011C11.7881 3.02229 12.0206 3.10763 12.1222 3.29267C12.3179 3.64047 12.2911 4.06698 12.2259 4.44726C12.1714 4.7988 11.9065 5.1702 11.5155 5.15548C11.1774 5.07967 11.0112 4.71665 11.025 4.39574C11.0042 3.91916 11.1098 3.30966 11.5902 3.09011Z" fill="#25303C"/>
</svg>
