<svg width="5" height="5" viewBox="0 0 5 5" fill="none" xmlns="http://www.w3.org/2000/svg">
<path d="M1.86061 0.0264485C2.96468 -0.153963 4.11002 0.605675 4.38421 1.68705C4.5614 2.48134 4.40495 3.34469 3.97903 4.03592C3.60573 4.63834 2.90825 5.00045 2.20392 4.99718C1.53522 5.02306 0.758153 4.87119 0.356712 4.28063C-0.0709528 3.64032 -0.0394967 2.82439 0.0709857 2.09521C0.159771 1.49428 0.36255 0.869108 0.831951 0.455855C1.11696 0.202719 1.4865 0.0732886 1.86061 0.0264485ZM2.87687 1.15199C2.39067 1.37415 2.28386 1.99091 2.30492 2.47316C2.29093 2.79789 2.45912 3.16524 2.80124 3.24195C3.19694 3.25684 3.46499 2.88102 3.52012 2.5253C3.58606 2.14049 3.6132 1.7089 3.41515 1.35696C3.31235 1.16971 3.07713 1.08336 2.87687 1.15199Z" fill="white"/>
</svg>
