<svg width="17" height="17" viewBox="0 0 17 17" fill="none" xmlns="http://www.w3.org/2000/svg">
<path d="M0.308376 0.308684C0.71965 -0.102504 1.38647 -0.102557 1.79771 0.308684L8.49969 7.01067L15.2017 0.308684C15.613 -0.102503 16.2798 -0.102557 16.691 0.308684C17.1018 0.71996 17.102 1.38689 16.691 1.79801L9.98902 8.5L16.6903 15.2013C17.1014 15.6125 17.1014 16.2793 16.6903 16.6906C16.279 17.1018 15.6122 17.1018 15.201 16.6906L8.49969 9.98933L1.79771 16.6913C1.38659 17.1024 0.719679 17.1021 0.308376 16.6913C-0.102891 16.28 -0.102891 15.6133 0.308376 15.202L7.01036 8.5L0.308376 1.79801C-0.102891 1.38675 -0.10289 0.719951 0.308376 0.308684Z" fill="#56B238"/>
</svg>
