<svg width="22" height="18" viewBox="0 0 22 18" fill="none" xmlns="http://www.w3.org/2000/svg">
<path d="M12.293 0.292969C12.6835 -0.0973833 13.3166 -0.0974854 13.707 0.292969L21.707 8.29199C21.8944 8.47941 21.9999 8.73402 22 8.99902C22 9.23094 21.9191 9.45492 21.7734 9.63281L21.707 9.70605L13.707 17.7061C13.3165 18.0965 12.6835 18.0965 12.293 17.7061C11.9025 17.3155 11.9025 16.6825 12.293 16.292L18.5859 9.99902L1 9.99902C0.447715 9.99902 2.41423e-08 9.55131 0 8.99902C0.000248886 8.44695 0.447869 7.99902 1 7.99902L18.5859 7.99902L12.293 1.70703C11.9025 1.31654 11.9025 0.683509 12.293 0.292969Z" fill="#56B238"/>
</svg>
