<svg width="30" height="30" viewBox="0 0 30 30" fill="none" xmlns="http://www.w3.org/2000/svg">
<path d="M15.187 23.9617C16.0155 23.9617 16.6871 24.6333 16.6871 25.4618V28.499C16.6869 29.3273 16.0154 29.999 15.187 29.999C14.3587 29.999 13.6872 29.3273 13.687 28.499V25.4618C13.687 24.6333 14.3586 23.9617 15.187 23.9617ZM6.59494 21.2819C7.18075 20.6961 8.1303 20.6961 8.7161 21.2819C9.30191 21.8677 9.30191 22.8173 8.7161 23.4031L6.56857 25.5506C5.98275 26.1362 5.03314 26.1364 4.44741 25.5506C3.86169 24.9649 3.86185 24.0153 4.44741 23.4295L6.59494 21.2819ZM21.3923 21.0173C21.978 20.4317 22.9276 20.4318 23.5135 21.0173L25.661 23.1648C26.2468 23.7506 26.2468 24.7002 25.661 25.286C25.0752 25.8717 24.1256 25.8717 23.5398 25.286L21.3923 23.1384C20.8067 22.5526 20.8066 21.603 21.3923 21.0173ZM14.9995 7.10472C19.3628 7.10477 22.9002 10.6421 22.9002 15.0054C22.8999 19.3684 19.3626 22.905 14.9995 22.905C10.6363 22.905 7.09908 19.3685 7.09886 15.0054C7.09886 10.6421 10.6362 7.10472 14.9995 7.10472ZM14.9995 10.1048C12.293 10.1048 10.099 12.2992 10.099 15.0054C10.0992 17.7114 12.2931 19.9049 14.9995 19.9049C17.7059 19.9049 19.8999 17.7114 19.9001 15.0054C19.9001 12.2992 17.706 10.1049 14.9995 10.1048ZM4.53726 13.312C5.36571 13.312 6.03731 13.9836 6.03731 14.812C6.03731 15.6405 5.36571 16.3121 4.53726 16.3121H1.50005C0.671751 16.3119 5.15616e-07 15.6403 0 14.812C0 13.9837 0.671751 13.3121 1.50005 13.312H4.53726ZM28.5 13.312C29.3284 13.312 30 13.9836 30 14.812C30 15.6405 29.3284 16.3121 28.5 16.3121H25.4627C24.6344 16.3119 23.9627 15.6403 23.9627 14.812C23.9627 13.9837 24.6344 13.3121 25.4627 13.312H28.5ZM23.5398 4.33803C24.1256 3.7526 25.0752 3.7526 25.661 4.33803C26.2468 4.92382 26.2468 5.87438 25.661 6.46017L23.5135 8.6077C22.9277 9.19297 21.978 9.19303 21.3923 8.6077C20.8066 8.02199 20.8067 7.07137 21.3923 6.48556L23.5398 4.33803ZM4.44741 4.07337C5.03314 3.48765 5.98275 3.48781 6.56857 4.07337L8.7161 6.22091C9.30191 6.80671 9.30191 7.75626 8.7161 8.34207C8.1303 8.92787 7.18075 8.92787 6.59494 8.34207L4.44741 6.19454C3.86185 5.60871 3.86169 4.6591 4.44741 4.07337ZM15.187 0C16.0155 5.15421e-07 16.6871 0.671595 16.6871 1.50005V4.53726C16.6869 5.36555 16.0154 6.03731 15.187 6.03731C14.3587 6.03731 13.6872 5.36555 13.687 4.53726V1.50005C13.687 0.671595 14.3586 0 15.187 0Z" fill="#56B238"/>
</svg>
