<svg width="22" height="18" viewBox="0 0 22 18" fill="none" xmlns="http://www.w3.org/2000/svg">
<path d="M8.29297 0.292969C8.68351 -0.0974357 9.31655 -0.0975125 9.70703 0.292969C10.0973 0.683477 10.0974 1.31657 9.70703 1.70703L3.41406 8L21 8C21.5522 8.00016 22 8.44781 22 9C21.9997 9.55197 21.552 9.99984 21 10L3.41406 10L9.70703 16.292C10.0973 16.6825 10.0973 17.3156 9.70703 17.7061C9.31658 18.0965 8.68352 18.0964 8.29297 17.7061L0.292969 9.70703C0.105534 9.51961 0.000125608 9.26505 0 9C1.1852e-08 8.73488 0.105555 8.48049 0.292969 8.29297L8.29297 0.292969Z" fill="#56B238"/>
</svg>
