<svg width="18" height="18" viewBox="0 0 18 18" fill="none" xmlns="http://www.w3.org/2000/svg">
<path d="M7.85742 0C8.40958 0.000150468 8.85742 0.447808 8.85742 1C8.85742 1.55219 8.40958 1.99985 7.85742 2H4C2.89543 2 2 2.89543 2 4V14C2 15.1046 2.89543 16 4 16H14C15.1046 16 16 15.1046 16 14V10.1426C16.0002 9.59042 16.4478 9.14258 17 9.14258C17.5522 9.14258 17.9998 9.59042 18 10.1426V14C18 16.2091 16.2091 18 14 18H4C1.79086 18 0 16.2091 0 14V4C1.28853e-07 1.79086 1.79086 1.28851e-07 4 0H7.85742ZM17 0C17.0563 0 17.1113 0.00571338 17.165 0.0146484C17.1738 0.0161084 17.1827 0.0168607 17.1914 0.0185547L17.2012 0.0205078C17.211 0.0225203 17.2207 0.025044 17.2305 0.0273438C17.251 0.032196 17.2717 0.0367993 17.292 0.0429688C17.3408 0.057833 17.3873 0.0778027 17.4326 0.0996094C17.4466 0.106345 17.4609 0.11269 17.4746 0.120117C17.6203 0.198874 17.7441 0.312548 17.835 0.450195C17.8597 0.487681 17.8812 0.526617 17.9004 0.566406C17.9216 0.6104 17.9404 0.655837 17.9551 0.703125C17.9618 0.724672 17.9665 0.746686 17.9717 0.768555C17.9893 0.842936 18 0.92022 18 1V6C18 6.55228 17.5523 7 17 7C16.4477 7 16 6.55228 16 6V3.41406L9.70703 9.70703C9.31651 10.0976 8.68349 10.0976 8.29297 9.70703C7.90244 9.31651 7.90244 8.68349 8.29297 8.29297L14.5859 2H12C11.4477 2 11 1.55228 11 1C11 0.447715 11.4477 0 12 0H17Z" fill="#7B8F9E"/>
</svg>
