<svg width="33" height="19" viewBox="0 0 33 19" fill="none" xmlns="http://www.w3.org/2000/svg">
<path d="M30.8028 0C30.8531 -1.29867e-05 30.9034 0.00192999 30.9534 0.00689057C30.9676 0.00829649 30.9816 0.0110002 30.9957 0.0127968C31.0303 0.0172033 31.0649 0.0217589 31.0991 0.0285466C31.1174 0.0321851 31.1352 0.0380345 31.1532 0.0423278C31.1839 0.0495869 31.2146 0.0567605 31.2448 0.0659526C31.2648 0.0720612 31.2842 0.0797178 31.3038 0.0866243C31.3302 0.0958367 31.3567 0.104461 31.3826 0.115171C31.4041 0.124092 31.4246 0.134833 31.4456 0.144702C31.4683 0.155344 31.4913 0.165356 31.5135 0.177186C31.5347 0.188492 31.555 0.201337 31.5755 0.213608C31.5982 0.227127 31.6213 0.240139 31.6435 0.254951C31.6628 0.267898 31.6809 0.282494 31.6996 0.296294C31.7596 0.340676 31.8184 0.388557 31.8728 0.442965C32.0401 0.610391 32.1577 0.808148 32.2301 1.01784C32.2364 1.03585 32.2433 1.05365 32.2488 1.07198C32.2551 1.09251 32.2602 1.11326 32.2656 1.13399C32.2967 1.25491 32.3148 1.38134 32.3148 1.51199V9.50012C32.3148 10.3351 31.6378 11.012 30.8028 11.0121C29.9678 11.0121 29.2908 10.3352 29.2908 9.50012V5.16202L19.2237 15.2291C18.6333 15.8194 17.6761 15.8194 17.0857 15.2291L11.4974 9.64089L2.58101 18.5573C1.99055 19.1477 1.03342 19.1477 0.442965 18.5573C-0.147482 17.9668 -0.147499 17.0097 0.442965 16.4192L10.4284 6.43382C11.0188 5.84352 11.976 5.84363 12.5664 6.43382L18.1547 12.0221L27.1528 3.02397H22.8147C21.9796 3.02397 21.3027 2.34703 21.3027 1.51199C21.3027 0.67694 21.9796 0 22.8147 0L30.8028 0Z" fill="#00858F"/>
</svg>
