<svg width="27" height="27" viewBox="0 0 27 27" fill="none" xmlns="http://www.w3.org/2000/svg">
<path d="M5.4998 0C8.01717 2.13573e-07 10.1386 1.69156 10.7916 3.99986L13.5005 3.99986C14.3289 3.99986 15.0004 4.6714 15.0004 5.4998V11.9996L16.2084 11.9996C16.8614 9.69128 18.9828 7.99971 21.5002 7.99971C24.5377 7.99971 27 10.4621 27 13.4995C27 16.537 24.5377 18.9993 21.5002 18.9993C18.9828 18.9993 16.8614 17.3077 16.2084 14.9995L15.0004 14.9995L15.0004 21.4992C15.0004 21.897 14.8423 22.2784 14.561 22.5597C14.2797 22.841 13.8983 22.9992 13.5005 22.9992H10.7916C10.1386 25.3075 8.01717 26.999 5.4998 26.999C2.46235 26.999 1.15965e-06 24.5367 0 21.4992C0 18.4618 2.46235 15.9994 5.4998 15.9994C8.01717 15.9994 10.1386 17.691 10.7916 19.9993H12.0005L12.0005 6.99975H10.7916C10.1386 9.30804 8.01717 10.9996 5.4998 10.9996C2.46235 10.9996 2.57697e-07 8.53726 0 5.4998C0 2.46235 2.46235 0 5.4998 0ZM5.4998 18.9993C4.11914 18.9993 2.99989 20.1186 2.99989 21.4992C2.99989 22.8799 4.11914 23.9991 5.4998 23.9991C6.88046 23.9991 7.99971 22.8799 7.99971 21.4992C7.99971 20.1186 6.88046 18.9993 5.4998 18.9993ZM21.5002 10.9996C20.1195 10.9996 19.0003 12.1189 19.0003 13.4995C19.0003 14.8802 20.1195 15.9994 21.5002 15.9994C22.8809 15.9994 24.0001 14.8802 24.0001 13.4995C24.0001 12.1189 22.8809 10.9996 21.5002 10.9996ZM5.4998 2.99989C4.11914 2.99989 2.99989 4.11914 2.99989 5.4998C2.99989 6.88046 4.11914 7.99971 5.4998 7.99971C6.88046 7.99971 7.99971 6.88046 7.99971 5.4998C7.99971 4.11914 6.88046 2.99989 5.4998 2.99989Z" fill="#F9820B"/>
</svg>
